<?xml version="1.0" encoding="utf-8"?>
<!-- Generator: Adobe Illustrator 24.0.1, SVG Export Plug-In . SVG Version: 6.00 Build 0)  -->
<svg version="1.1" id="Layer_2" xmlns="http://www.w3.org/2000/svg" xmlns:xlink="http://www.w3.org/1999/xlink" x="0px" y="0px"
	 viewBox="0 0 305.1 302.3" style="enable-background:new 0 0 305.1 302.3;" xml:space="preserve">
<style type="text/css">
	.st0{fill:url(#SVGID_1_);}
	.st1{fill:url(#SVGID_2_);}
	.st2{fill:#07243A;}
	.st3{fill:url(#SVGID_3_);}
	.st4{fill:#FFFFFF;}
	.st5{clip-path:url(#SVGID_4_);}
	.st6{fill:none;stroke:#07243A;stroke-width:4;stroke-miterlimit:10;}
	.st7{fill:none;stroke:#EB4224;stroke-width:10;stroke-miterlimit:10;}
	.st8{fill:none;stroke:#07243A;stroke-width:2;stroke-miterlimit:10;}
	.st9{fill:url(#SVGID_5_);}
	.st10{fill:url(#SVGID_6_);}
	.st11{fill:url(#SVGID_7_);}
	.st12{fill:url(#SVGID_8_);}
	.st13{fill:url(#SVGID_9_);}
	.st14{fill:url(#SVGID_10_);}
	.st15{fill:url(#SVGID_11_);}
	.st16{fill:url(#SVGID_12_);}
	.st17{fill:url(#SVGID_13_);}
	.st18{fill:url(#SVGID_14_);}
	.st19{fill:url(#SVGID_15_);}
	.st20{fill:url(#SVGID_16_);}
	.st21{fill:url(#SVGID_17_);}
	.st22{fill:url(#SVGID_18_);}
	.st23{fill:url(#SVGID_19_);}
	.st24{fill:url(#SVGID_20_);}
	.st25{fill:url(#SVGID_21_);}
	.st26{fill:url(#SVGID_23_);}
	.st27{fill:#26A6FE;}
	.st28{fill:url(#SVGID_24_);}
	.st29{fill:url(#SVGID_26_);}
	.st30{fill:url(#SVGID_27_);}
	.st31{fill:url(#SVGID_29_);}
	.st32{fill:url(#SVGID_30_);}
	.st33{fill:url(#SVGID_31_);}
	.st34{fill:url(#SVGID_32_);}
	.st35{fill:url(#SVGID_33_);}
	.st36{fill:url(#SVGID_34_);}
	.st37{fill:url(#SVGID_35_);}
	.st38{fill:url(#SVGID_36_);}
	.st39{fill:url(#SVGID_37_);}
	.st40{fill:#FFE36E;}
	.st41{fill:#FFAA39;}
	.st42{fill:#FFFEEB;}
	.st43{fill:#007BFF;}
	.st44{fill:url(#XMLID_2_);}
	.st45{fill:url(#XMLID_3_);}
	.st46{fill:url(#XMLID_4_);}
	.st47{opacity:0.3;}
	.st48{fill:#30DFD5;}
	.st49{fill:url(#XMLID_8_);}
	.st50{clip-path:url(#SVGID_38_);fill:url(#SVGID_39_);}
	.st51{clip-path:url(#SVGID_40_);fill:url(#SVGID_41_);}
	.st52{opacity:0.85;clip-path:url(#SVGID_42_);fill:url(#SVGID_43_);}
	.st53{filter:url(#Adobe_OpacityMaskFilter);}
	.st54{fill:url(#SVGID_45_);}
	.st55{mask:url(#SVGID_44_);fill-rule:evenodd;clip-rule:evenodd;fill:#EBF855;}
	.st56{filter:url(#Adobe_OpacityMaskFilter_1_);}
	.st57{fill:url(#SVGID_47_);}
	.st58{mask:url(#SVGID_46_);fill-rule:evenodd;clip-rule:evenodd;fill:#5EF9F6;}
	.st59{filter:url(#Adobe_OpacityMaskFilter_2_);}
	.st60{fill:url(#SVGID_49_);}
	.st61{mask:url(#SVGID_48_);fill-rule:evenodd;clip-rule:evenodd;fill:#003780;}
	.st62{filter:url(#Adobe_OpacityMaskFilter_3_);}
	.st63{fill:url(#SVGID_51_);}
	.st64{mask:url(#SVGID_50_);fill-rule:evenodd;clip-rule:evenodd;fill:#003780;}
	.st65{filter:url(#Adobe_OpacityMaskFilter_4_);}
	.st66{fill:url(#SVGID_53_);}
	.st67{mask:url(#SVGID_52_);fill-rule:evenodd;clip-rule:evenodd;fill:#EBF855;}
	.st68{filter:url(#Adobe_OpacityMaskFilter_5_);}
	.st69{fill:url(#SVGID_55_);}
	.st70{mask:url(#SVGID_54_);fill-rule:evenodd;clip-rule:evenodd;fill:#39D4FF;}
	.st71{fill:url(#SVGID_56_);}
	.st72{opacity:0.44;fill:url(#SVGID_57_);}
	.st73{fill:url(#SVGID_58_);}
	.st74{fill:url(#SVGID_59_);}
</style>
<linearGradient id="SVGID_1_" gradientUnits="userSpaceOnUse" x1="1.5" y1="152" x2="305.2408" y2="152">
	<stop  offset="0" style="stop-color:#26A6FE"/>
	<stop  offset="1" style="stop-color:#2740B0"/>
</linearGradient>
<ellipse class="st0" cx="153.4" cy="152" rx="151.9" ry="151"/>
<g>
	<linearGradient id="SVGID_2_" gradientUnits="userSpaceOnUse" x1="308.5" y1="149.2941" x2="308.5" y2="149.2941">
		<stop  offset="0" style="stop-color:#26A6FE"/>
		<stop  offset="1" style="stop-color:#2740B0"/>
	</linearGradient>
	<path class="st1" d="M308.5,149.3"/>
	<path class="st2" d="M298.5,151.6c0,80.5-65,145.7-145.2,145.7c-80.2,0-145.2-65.2-145.2-145.7c0-80.5,65-145.7,145.2-145.7
		C233.5,5.9,298.5,71.1,298.5,151.6z"/>
	<linearGradient id="SVGID_3_" gradientUnits="userSpaceOnUse" x1="21.5674" y1="241.4029" x2="285.0393" y2="241.4029">
		<stop  offset="0" style="stop-color:#00FFAF"/>
		<stop  offset="0.1625" style="stop-color:#36C9BB"/>
		<stop  offset="0.3921" style="stop-color:#7D82C9"/>
		<stop  offset="0.5991" style="stop-color:#B54AD5"/>
		<stop  offset="0.7757" style="stop-color:#DD22DE"/>
		<stop  offset="0.9151" style="stop-color:#F609E3"/>
		<stop  offset="1" style="stop-color:#FF00E5"/>
	</linearGradient>
	<path class="st3" d="M234.9,192.7c-15,30-45.9,50.5-81.6,50.5s-66.6-20.6-81.6-50.5H21.6c17.5,56.4,69.8,97.4,131.7,97.4
		c61.9,0,114.3-41,131.7-97.4H234.9z"/>
</g>
<path class="st4" d="M237,145c0.1,43.4-36.9,78.7-82.8,78.8c-45.9,0.1-83.2-35-83.3-78.4c-0.1-43.4,36.9-78.7,82.8-78.8
	C199.6,66.5,236.9,101.6,237,145z"/>
<g>
	<defs>
		<path id="SVGID_67_" d="M216.5,151.6c0,35-28.3,63.5-63.2,63.5c-34.9,0-63.2-28.4-63.2-63.5s28.3-63.5,63.2-63.5
			C188.2,88.1,216.5,116.5,216.5,151.6z"/>
	</defs>
	<clipPath id="SVGID_4_">
		<use xlink:href="#SVGID_67_"  style="overflow:visible;"/>
	</clipPath>
	<g class="st5">
		<path class="st6" d="M222.2,117.3"/>
		<path class="st6" d="M90.1,117.3"/>
		<path class="st7" d="M236.4,150.6"/>
		<path class="st7" d="M76,150.6"/>
		<path class="st8" d="M229.3,129.9"/>
		<path class="st8" d="M83,129.9"/>
	</g>
</g>
<g>
	<path class="st4" d="M43.1,216.9c-1.1-1.9-1.3-3.7-0.7-5.3c0.6-1.6,2-3,4.2-4.1l1.8-0.9c2.3-1.1,4.4-1.5,6.3-1.1
		c1.9,0.4,3.3,1.5,4.4,3.3c1,1.7,1,3.4,0.1,5.1c-1,1.7-2.8,3.2-5.6,4.5l-1,0.5l-5.2-8.9l2.8-1.4l3.4,5.8l0.3-0.2
		c0.8-0.5,1.4-1.1,1.7-1.7c0.3-0.6,0.2-1.3-0.1-1.9c-0.5-0.8-1.2-1.3-2-1.5c-0.9-0.2-1.8,0-2.9,0.5l-2,1c-1.1,0.5-1.7,1.2-2,2
		c-0.3,0.8-0.2,1.6,0.3,2.5c0.3,0.5,0.6,0.9,1.1,1.2c0.5,0.4,1,0.6,1.5,0.8l-1.1,3.4c-1.1-0.3-2.2-0.8-3-1.5
		C44.3,218.6,43.6,217.8,43.1,216.9z"/>
	<path class="st4" d="M60.1,222.8l6.6,8.2l-3.6,2.5l-6.6-8.2L60.1,222.8z"/>
	<path class="st4" d="M79.3,234.7l-7.5,7.1c-0.6,0.6-0.9,1.1-0.9,1.7c0,0.6,0.3,1.1,0.8,1.7c0.6,0.5,1.2,0.7,1.8,0.7
		c0.6,0,1.3-0.4,1.9-0.9l-2.5,2.7c-0.8,0.4-1.7,0.6-2.7,0.6s-1.9-0.3-2.6-1c-1.2-1.1-1.8-2.4-1.6-3.8c0.2-1.4,1-2.8,2.6-4.3l7.6-7.2
		L79.3,234.7z M70.6,249.5l12.3-11.6l3,2.7l-12.3,11.6L70.6,249.5z"/>
	<path class="st4" d="M77.2,263.3l13.9-18.9l3.5,2.2l-13.9,18.9L77.2,263.3z M87.7,262.1c-0.8-0.5-1.3-1.1-1.6-1.9
		c-0.3-0.8-0.3-1.6,0-2.5l2.4-3c-0.3,0.4-0.5,0.9-0.6,1.3c-0.1,0.4,0,0.8,0.2,1.1c0.2,0.3,0.5,0.7,0.9,0.9c0.7,0.4,1.3,0.5,2,0.3
		c0.7-0.2,1.3-0.7,1.9-1.5l1.6-2.1c0.6-0.8,0.9-1.6,0.9-2.2c0-0.7-0.4-1.2-1-1.6c-0.4-0.3-0.8-0.4-1.3-0.4c-0.4,0-0.8,0.1-1.2,0.3
		c-0.4,0.2-0.8,0.6-1.1,1l1.9-3.1c0.9-0.6,1.9-0.9,2.8-0.9c0.9-0.1,1.7,0.1,2.4,0.6c1.4,0.9,2.2,2.1,2.2,3.6c0,1.5-0.6,3.2-2,5.1
		l-1.6,2.2c-1.4,1.8-2.8,3-4.3,3.6C90.6,263.2,89.2,263,87.7,262.1z"/>
	<path class="st4" d="M108.2,272.1c-1.6-0.6-2.8-1.4-3.7-2.5c-0.8-1-1.3-2.3-1.4-3.7c-0.1-1.4,0.3-2.9,1-4.6l2.6-5.8
		c0.8-1.7,1.7-3,2.8-3.9c1.1-0.9,2.4-1.5,3.8-1.7c1.4-0.2,2.9,0,4.5,0.6c1.3,0.5,2.4,1.2,3.1,2.2c0.8,1,1.3,2.1,1.4,3.4
		c0.2,1.3,0.1,2.8-0.4,4.5l-4.1-1.6c0.2-0.8,0.2-1.4,0.1-2.1c-0.1-0.6-0.3-1.1-0.7-1.6c-0.3-0.4-0.8-0.8-1.4-1c-1.1-0.4-2.1-0.4-3,0
		c-0.9,0.4-1.7,1.3-2.2,2.5l-2.6,5.8c-0.6,1.2-0.7,2.3-0.4,3.2c0.3,0.9,1,1.6,2.1,2c0.9,0.3,1.7,0.3,2.6,0c0.9-0.3,1.6-1,2.3-2
		l4.1,1.6c-1,1.4-2,2.5-3.2,3.4c-1.2,0.8-2.4,1.3-3.7,1.5C110.8,272.7,109.5,272.6,108.2,272.1z"/>
	<path class="st4" d="M131.7,278.5c-2.3-0.4-4-1.3-5-2.8c-1-1.5-1.3-3.3-0.8-5.6l0.4-1.8c0.5-2.4,1.5-4.1,3-5.2
		c1.5-1.1,3.3-1.4,5.6-1c2.1,0.4,3.6,1.4,4.4,3.2s0.9,4,0.4,6.8l-0.2,1l-10.8-1.9l0.6-2.8l7,1.2l0-0.4c0.1-0.9-0.1-1.7-0.4-2.3
		c-0.4-0.6-0.9-0.9-1.7-1.1c-1-0.2-1.9,0-2.5,0.5c-0.7,0.5-1.1,1.3-1.4,2.4l-0.4,2c-0.2,1.1-0.1,2,0.4,2.7c0.5,0.7,1.3,1.1,2.4,1.3
		c0.6,0.1,1.1,0.1,1.7,0c0.6-0.1,1.1-0.3,1.7-0.6l2.2,2.9c-1,0.6-2,1-3.1,1.3C133.9,278.6,132.8,278.7,131.7,278.5z"/>
	<path class="st4" d="M147.1,280l0.3-16.2l4.6,0.1l-0.3,16.2L147.1,280z M156.4,268.4c-0.2-0.2-0.4-0.4-0.7-0.5
		c-0.3-0.1-0.7-0.2-1-0.2c-0.9,0-1.5,0.3-2,0.8c-0.5,0.5-0.7,1.3-0.8,2.3l-0.2-4.2c0.5-1,1.1-1.7,1.8-2.2c0.7-0.5,1.5-0.8,2.4-0.8
		c0.7,0,1.3,0.1,1.8,0.3s1,0.5,1.4,1L156.4,268.4z"/>
	<path class="st4" d="M162.8,267.2l-0.5-3.6l7.8-1l0.5,3.6L162.8,267.2z M170.4,279c-1.4,0.2-2.5-0.1-3.3-0.7
		c-0.7-0.7-1.2-1.7-1.4-3l-2.4-16.6l4.2-0.5l2.2,15.5c0.1,0.4,0.2,0.7,0.4,0.9c0.2,0.2,0.4,0.3,0.7,0.2l1-0.1l0.6,4.1L170.4,279z"/>
	<path class="st4" d="M175.4,259.3l-1.2-4.1l4.1-1l1.2,4.1L175.4,259.3z M180.4,277.2l-4.4-15.7l4.1-1l4.4,15.7L180.4,277.2z"/>
	<path class="st4" d="M186.6,262.6l-1.4-3.4l8.1-2.8l1.4,3.4L186.6,262.6z M193.1,273.7l-7.2-17.2c-0.6-1.3-0.7-2.4-0.3-3.3
		c0.3-0.9,1.1-1.6,2.4-2l2.8-1l1.5,3.6l-1.7,0.6c-0.3,0.1-0.5,0.3-0.5,0.6c0,0.3,0,0.6,0.1,0.9l6.9,16.5L193.1,273.7z"/>
	<path class="st4" d="M197.1,252.2l-2.2-3.8l3.8-1.8l2.2,3.8L197.1,252.2z M206.4,268.5l-8.2-14.4l3.8-1.8l8.2,14.4L206.4,268.5z"/>
	<path class="st4" d="M223.5,259.2c-1.9,1.2-3.8,1.6-5.6,1.3s-3.6-1.6-5.1-3.5l-1.1-1.4c-1.5-1.9-2.1-3.8-1.9-5.5
		c0.2-1.7,1.3-3.2,3.2-4.4c1.1-0.7,2.2-1.2,3.4-1.4c1.2-0.2,2.3-0.1,3.3,0.2l-0.6,3.7c-0.5-0.1-1.1-0.1-1.7,0
		c-0.6,0.1-1.1,0.3-1.6,0.6c-0.9,0.6-1.4,1.3-1.5,2c-0.1,0.8,0.2,1.6,0.8,2.5l1.1,1.4c0.7,0.9,1.4,1.4,2.3,1.6
		c0.9,0.2,1.7,0,2.6-0.6c0.5-0.3,0.9-0.7,1.2-1.2c0.3-0.5,0.5-1,0.5-1.5l4,0.9c0,1-0.3,2-0.9,2.9
		C225.5,257.7,224.6,258.5,223.5,259.2z"/>
	<path class="st4" d="M240.9,245.1l-7.9-7.3c-0.6-0.5-1.2-0.8-1.9-0.7c-0.7,0-1.3,0.3-2,0.9c-0.4,0.4-0.8,0.8-1,1.4
		c-0.3,0.5-0.4,1.1-0.5,1.6l-3.9-0.1c-0.1-0.9,0-1.9,0.5-2.9c0.4-1,1.1-1.9,2-2.7c1.5-1.4,3.1-2.1,4.7-2.1c1.6,0,3.2,0.7,4.7,2
		l8,7.4L240.9,245.1z M237.9,248.1c-1.2,1.1-2.4,1.7-3.7,1.6c-1.2,0-2.5-0.6-3.8-1.8c-1.2-1.1-1.8-2.3-1.8-3.5
		c0.1-1.2,0.8-2.4,2.1-3.6l2.9-2.6l2.7,2.2l-3,2.8c-0.5,0.4-0.7,0.8-0.7,1.2c0,0.4,0.2,0.8,0.6,1.1c0.4,0.4,0.9,0.5,1.3,0.4
		c0.5-0.1,1-0.4,1.6-0.9c0.8-0.7,1.3-1.4,1.5-1.9c0.2-0.5,0.1-1-0.3-1.4l2,1.5c0.4,0.5,0.6,1,0.6,1.6c0,0.6-0.2,1.2-0.6,1.8
		C238.9,247.1,238.5,247.6,237.9,248.1z"/>
	<path class="st4" d="M252.3,232.9c-0.9,1.1-1.8,1.6-2.9,1.6c-1,0-2.1-0.4-3.3-1.2l-14.5-10.1l2.6-3.1l13.6,9.5
		c0.3,0.2,0.6,0.4,0.9,0.4c0.3,0,0.5-0.1,0.7-0.3l0.6-0.8l3.6,2.5L252.3,232.9z M237.9,229.4l-3.2-2.2l4.8-5.8l3.2,2.2L237.9,229.4z
		"/>
	<path class="st4" d="M262.1,219.4c-1.2,1.9-2.7,3-4.5,3.4c-1.8,0.4-3.8,0-6-1.1l-1.7-0.9c-2.3-1.2-3.7-2.6-4.4-4.3
		c-0.6-1.6-0.4-3.4,0.7-5.2c1.1-1.7,2.6-2.6,4.7-2.8c2.1-0.1,4.5,0.5,7.2,1.9l1,0.5l-5.5,8.8l-2.7-1.4l3.5-5.7l-0.4-0.1
		c-0.9-0.4-1.8-0.5-2.5-0.4c-0.7,0.1-1.3,0.5-1.7,1.1c-0.5,0.8-0.6,1.6-0.3,2.4c0.3,0.8,1,1.4,2,2l2,1c1,0.5,2,0.7,2.9,0.5
		c0.9-0.2,1.6-0.7,2.1-1.6c0.3-0.5,0.5-1,0.6-1.5c0.1-0.5,0.1-1.1-0.1-1.6l3.7-1c0.3,1.1,0.4,2.1,0.3,3.1
		C262.9,217.6,262.6,218.5,262.1,219.4z"/>
</g>
<g>
	<path class="st4" d="M64.3,114.6c-0.7,2.2-1.6,4.2-2.7,5.8c-1.1,1.7-2.2,3.1-3.4,4.2c-1.2,1.2-2.5,2.1-3.8,2.8
		c-1.3,0.7-2.6,1.3-3.7,1.6c-1.2,0.4-2.3,0.5-3.4,0.6c-1,0-1.9,0-2.6-0.2c-0.4-0.1-0.5-0.2-0.5-0.3c0.4-0.9,0.7-1.8,1-2.6
		c0.3-0.8,0.6-1.5,0.8-2.1c0.3-1,0.5-2,0.6-2.9c0.1-0.9,0-1.8-0.2-2.5s-0.6-1.4-1.1-2c-0.5-0.6-1.2-1-2.1-1.2
		c-0.7-0.2-1.5-0.3-2.1-0.3c-0.7,0-1.4,0.2-2.1,0.4c-0.7,0.2-1.5,0.6-2.2,1.1c-0.8,0.5-1.7,1-2.6,1.6l-0.1,0.1l3.9,1.1l0.2-0.2
		c1.4-1.7,2.6-2.4,3.4-2.2c0.2,0.1,0.5,0.3,0.9,0.6c0.4,0.4,0.8,0.8,1.3,1.3c0.4,0.5,0.8,1,1.1,1.5c0.3,0.5,0.4,1,0.3,1.3
		c0,0.1-0.2,0.4-0.5,0.9c-0.3,0.5-0.6,1-0.9,1.5c-0.3,0.5-0.6,1-0.9,1.4c-0.3,0.4-0.4,0.6-0.5,0.6l0,0.1l-6.3-2.1
		c-0.4-0.1-0.9-0.1-1.5,0c-0.6,0.1-1.1,0.3-1.7,0.6c-0.5,0.3-1,0.7-1.5,1.2c-0.4,0.5-0.8,1-1,1.7l-2.7,0.8l1.1-3.4
		c0.6-1.2,1.5-1.9,2.9-2.3l-2.3-0.8c0-0.1,0-0.2,0.1-0.3l0.1-0.4c0.1-0.4,0.3-0.8,0.6-1.4c0.3-0.5,0.6-1.1,1-1.8l1.8-5.4
		c-0.3-0.3-0.8-0.6-1.5-1c-0.7-0.4-1.4-0.7-2.1-0.9c-1.4-0.4-2.6-0.3-3.5,0.4c-1,0.7-1.8,2-2.5,4.1c-0.2,0.7-0.4,1.5-0.6,2.3
		c-0.1,0.8-0.2,1.5-0.3,2.3c0,0.7,0,1.3,0,1.9c0.1,0.5,0.2,0.9,0.4,1.1l0,0c0.7,1,0.7,2.5,0.1,4.6c-0.3-0.1-0.5-0.2-0.8-0.3
		c-0.2-0.1-0.5-0.3-0.7-0.6c-0.2-0.3-0.5-0.8-0.7-1.3s-0.5-1.4-0.8-2.4c-0.6-2.1-0.1-5.3,1.2-9.4c0.6-1.6,1.3-3,2.1-4
		c0.7-1,1.6-1.8,2.4-2.3c0.9-0.5,1.8-0.8,2.9-0.8c1,0,2.1,0.1,3.3,0.5c1.1,0.3,2,0.7,2.6,1l0.1-0.3l2.7-0.7l-2.4,7.1
		c0.9-0.6,2-1.1,3.1-1.5c1.1-0.4,2.2-0.8,3.2-1.1c1.1-0.3,2-0.4,2.9-0.5c0.9-0.1,1.6,0,2.1,0.1c0.7,0.2,1.4,0.6,2,1
		c0.6,0.5,1.1,1.1,1.5,1.8c0.4,0.7,0.7,1.5,0.9,2.3c0.2,0.9,0.2,1.8,0,2.8c-0.1,0.5-0.2,1.1-0.4,1.7c-0.2,0.7-0.4,1.4-0.6,2.1
		l-0.3,0.9c0,0.1-0.1,0.3-0.1,0.4c0,0.1-0.1,0.3-0.2,0.5l1.3-0.1c1.2-0.1,2.4-0.4,3.6-0.9c1.2-0.5,2.3-1.2,3.3-2.1
		c1-0.9,2-1.9,2.8-3.1c0.9-1.2,1.6-2.5,2.2-4c0.7-1.5,1.7-2.2,2.8-1.8L64.3,114.6z"/>
	<path class="st4" d="M52.8,104.6c-0.3,0.5-0.5,1-0.8,1.3c-0.2,0.4-0.5,0.6-0.7,0.8c-0.3,0.2-0.5,0.4-0.8,0.4
		c-0.3,0.1-0.7,0.1-1.1,0.1l-2-0.1l4.5-10.4c0.3-0.4,0.8-0.8,1.3-1c0.6-0.3,1.3-0.3,2.2-0.1l1.3,0.3l-1,2.3
		c-0.2,0.5-0.4,0.9-0.5,1.2c-0.1,0.3-0.2,0.5-0.2,0.7c-0.1,0.2-0.1,0.4-0.2,0.6c0,0.2-0.1,0.4-0.3,0.7c-0.1,0.3-0.3,0.7-0.6,1.2
		C53.6,103,53.3,103.7,52.8,104.6z"/>
	<path class="st4" d="M84.6,83.8c-1.5,1.9-3,3.5-4.5,4.8c-1.6,1.3-3.1,2.3-4.7,3c-1.5,0.8-3.1,1.3-4.6,1.6c-1.5,0.3-2.9,0.5-4.1,0.5
		c-1.3,0-2.4-0.1-3.4-0.4c-1-0.3-1.8-0.6-2.4-0.9c-0.3-0.2-0.4-0.4-0.4-0.5c0.7-0.8,1.3-1.5,1.9-2.2c0.6-0.7,1-1.3,1.5-1.8
		c0.7-0.9,1.2-1.7,1.6-2.6c0.4-0.9,0.6-1.7,0.7-2.5c0.1-0.8-0.1-1.5-0.4-2.2c-0.3-0.7-0.9-1.3-1.6-1.8c-0.6-0.4-1.3-0.7-2-0.9
		C61.5,78,60.8,77.9,60,78c-0.8,0-1.6,0.2-2.5,0.4c-0.9,0.2-1.9,0.5-3.1,0.7l-0.1,0l3.3,2.2l0.2-0.2c1.9-1.2,3.3-1.6,4-1.1
		c0.2,0.1,0.4,0.4,0.7,0.8c0.3,0.5,0.6,1,0.8,1.6c0.3,0.6,0.4,1.2,0.5,1.7c0.1,0.6,0,1-0.2,1.3c-0.1,0.1-0.3,0.3-0.7,0.7
		c-0.4,0.4-0.9,0.8-1.3,1.2c-0.5,0.4-0.9,0.8-1.3,1.1c-0.4,0.3-0.6,0.5-0.7,0.4l0,0.1L54.3,85c-0.4-0.2-0.8-0.4-1.4-0.5
		c-0.6-0.1-1.2,0-1.8,0.1c-0.6,0.1-1.2,0.4-1.8,0.7c-0.6,0.3-1.1,0.8-1.5,1.3l-2.8,0l2.2-2.9c0.9-1,2.1-1.4,3.5-1.3l-2-1.4
		c0-0.1,0.1-0.2,0.2-0.3l0.2-0.3c0.2-0.3,0.6-0.7,1-1.1c0.4-0.4,0.9-0.9,1.5-1.4l3.5-4.6c-0.2-0.3-0.6-0.8-1.1-1.3
		c-0.5-0.6-1.1-1-1.7-1.4c-1.2-0.8-2.4-1-3.5-0.6c-1.1,0.4-2.4,1.4-3.7,3.2c-0.5,0.6-0.9,1.3-1.3,2c-0.4,0.7-0.7,1.4-1,2.1
		c-0.3,0.7-0.5,1.3-0.6,1.8c-0.1,0.5-0.1,0.9,0,1.2l0,0c0.3,1.2-0.1,2.6-1.5,4.3c-0.2-0.2-0.5-0.3-0.6-0.5c-0.2-0.2-0.3-0.5-0.5-0.8
		c-0.1-0.3-0.2-0.8-0.2-1.5c0-0.6,0-1.5,0.1-2.5c0.2-2.2,1.6-5,4.3-8.6c1.2-1.4,2.3-2.4,3.3-3.2s2.1-1.3,3.1-1.5c1-0.2,2-0.2,3,0
		c1,0.2,2,0.7,3,1.4c1,0.6,1.7,1.2,2.1,1.7l0.2-0.2l2.8,0.1l-4.6,6.1c1.1-0.3,2.2-0.5,3.4-0.6c1.2-0.1,2.4-0.1,3.4-0.1
		c1.1,0,2.1,0.1,3,0.3c0.9,0.2,1.5,0.4,2,0.7c0.6,0.4,1.2,0.9,1.6,1.6c0.4,0.6,0.7,1.3,0.9,2.1c0.2,0.8,0.2,1.6,0.1,2.5
		c-0.1,0.9-0.4,1.7-1,2.6c-0.3,0.4-0.6,1-1,1.5c-0.4,0.6-0.8,1.2-1.3,1.9l-0.6,0.8c-0.1,0.1-0.2,0.2-0.3,0.4
		c-0.1,0.1-0.2,0.2-0.3,0.4l1.3,0.2c1.2,0.3,2.5,0.3,3.8,0.2c1.3-0.2,2.6-0.5,3.8-1c1.3-0.5,2.5-1.2,3.7-2.1c1.2-0.9,2.4-2,3.4-3.2
		c1.2-1.3,2.3-1.6,3.3-0.9L84.6,83.8z"/>
	<path class="st4" d="M83,46.8l1-0.8l2.8,0.5l-10.3,8.6l1,1c4,4,6.2,5.8,6.6,5.4l0.1-0.1c0.1-0.3,0.1-0.7,0.1-1.2
		c0-0.4-0.1-1-0.3-1.7c-0.2-0.7-0.4-1.5-0.7-2.4c-0.3-0.9-0.7-2.1-1.2-3.4l1.4-0.6c1.1-0.4,2-0.8,2.6-1c0.7-0.2,1.1-0.3,1.3-0.4
		l5.6,5.6l1.6,1.7c1.9,2.1,2.6,4.3,2.1,6.7c-0.5,2.4-2.4,4.9-5.5,7.6c-2.6,2.2-5.5,3.5-8.7,4c-3.2,0.5-6.7,0.2-10.4-0.8l0.7-0.7
		c1.3-1.1,2.5-1.8,3.6-2.2c1.1-0.4,2.4-0.4,3.8-0.2c3.6,0.7,6.4,0.2,8.4-1.5c1.6-1.3,2.4-2.7,2.7-4.2c0.2-1.5,0-2.8-0.6-4
		c-0.8-1.1-1.7-2.2-2.8-3.3l0.1,0.7c0.1,0.9-0.1,1.8-0.4,2.7c-0.4,0.9-0.9,1.6-1.7,2.3c-0.8,0.7-1.7,1.1-2.7,1.3
		c-0.9,0.1-1.7,0.2-2.4,0.1l-0.1,0l-8.3-8.3l-9.5,8L60.1,66l18.7-15.7c-0.5-1.2-1.2-2.3-2.2-3.3c-1-1-2.1-1.4-3.3-1.3
		c-1.2,0.1-2.7,0.9-4.4,2.4c-0.6,0.5-1.2,1.1-1.7,1.7c-0.6,0.6-1.1,1.2-1.5,1.8c-0.4,0.6-0.8,1.1-1,1.6c-0.2,0.5-0.3,0.9-0.3,1.2
		l0,0.1c0,1.2-0.7,2.4-2,3.5l-0.5,0.4l-0.1-0.1c-0.1-0.1-0.3-0.3-0.4-0.5c-0.1-0.2-0.2-0.5-0.3-0.8c0-0.4,0-0.9,0.1-1.5
		c0.1-0.6,0.3-1.5,0.7-2.5c0.7-2.1,2.8-4.5,6-7.3l0.3-0.2c1.5-1.1,2.8-1.9,4-2.4c1.2-0.5,2.3-0.8,3.4-0.9c1.1,0,2,0.2,3,0.6
		c0.9,0.5,1.8,1.1,2.7,2C82.1,45.5,82.6,46.1,83,46.8z"/>
	<path class="st4" d="M109.1,62L109.1,62c-2.9,0.7-4.9,0.7-6.1-0.1c-0.2-0.2-4.2-5.9-11.8-17.1l-1.8,1.1l-2.7-1l3.2-1.8l-1.7-0.7
		c-1.1-0.5-2-1.1-2.6-2c-0.4-0.6-0.7-1.5-0.7-2.5c0-1.1,0.3-2.2,0.8-3.5c0.6-1.3,1.5-2.6,2.8-4c1.3-1.4,3-2.7,5.1-3.9
		c4.7-2.5,9.4-3.5,14-2.8c2.5,0.4,3.9,0.8,4.3,1.3c0.2,0.2,0,0.5-0.5,0.7c-0.8,0.4-1.4,0.7-2,0.8c-0.5,0.1-1,0.1-1.3,0.1
		c-0.3-0.1-0.6-0.2-0.8-0.3c-0.2-0.2-0.3-0.3-0.4-0.3l-0.2-0.3c-0.1-0.3-0.2-0.4-0.2-0.4l-0.1,0c-3.1-0.5-6,0.1-8.8,1.7
		c-1.6,0.9-3,1.9-4.1,3c-1.1,1.1-1.9,2.2-2.4,3.3c-0.5,1.1-0.7,2.2-0.7,3.2c0,1,0.3,2,0.9,2.8c0.2,0.3,0.5,0.5,0.9,0.9
		c0.4,0.3,1,0.5,1.9,0.7l1.5-0.9l2.6,1l-2.8,1.6L109.1,62z"/>
	<path class="st4" d="M133.7,52.1l-0.7,0c-1.3,0-2.3,0-3.2-0.2c-0.9-0.2-1.6-0.5-2-0.9c-0.2-0.3-2.3-4.9-6.3-14
		c-0.1-0.1-0.2-0.2-0.4-0.4c-0.1-0.1-0.3-0.3-0.5-0.4l-0.9,3.6l-1.8,5.9c-0.2,0.3-0.6,0.6-1.3,0.9c-0.9,0.3-1.9,0.5-3.1,0.5
		c-0.2,0-0.4,0-0.5,0c-0.1,0-0.1,0-0.2,0l-0.1-0.1c0,0,0-0.1,0-0.1c0.1-0.5,0.1-1.1,0-1.7c-0.1-0.6-0.2-1.2-0.5-1.9
		c-0.2-0.5-0.4-0.9-0.7-1.3c-0.3-0.4-0.5-0.5-0.7-0.4l-0.2,0.1c-0.2,0.3-0.4,0.7-0.5,1.1c-0.1,0.4-0.2,0.8-0.3,1.2
		c-0.1,0.4-0.2,0.7-0.4,1.1c-0.2,0.3-0.5,0.6-1,0.7c-0.2,0.1-0.4,0.1-0.8,0.2c-0.3,0.1-0.7,0.2-1,0.2c-0.3,0.1-0.7,0.1-1,0.2
		c-0.3,0-0.5,0-0.6,0l-3-6.7c-0.2-1.2,0.4-2.3,1.6-3.5c1.2-1.2,3-2.2,5.4-3.1c1-0.4,2.1-0.7,3.1-0.9c1-0.2,2-0.3,2.9-0.4
		c0.9-0.1,1.7-0.1,2.4,0c0.7,0.1,1.3,0.2,1.7,0.4l-2.1-4.8c0,0,0.1,0,0.2,0c0.1,0,0.3,0,0.6-0.1c1.4-0.1,2.5,0,3.4,0.2
		c0.9,0.2,1.5,0.5,1.9,0.9l1.3-0.5l2.4,1.4l-2.8,1C124.2,30.6,127.3,37.8,133.7,52.1z M114.9,41l0.2-0.9c0.6-3,1.4-4.7,2.3-5.1
		c0.4-0.1,0.7-0.2,0.9-0.1c-2.3-0.6-4.9-0.4-7.8,0.7c-0.8,0.3-1.5,0.6-1.9,0.9c-0.5,0.3-0.8,0.6-1,0.9c-0.2,0.3-0.3,0.7-0.2,1.1
		c0,0.4,0.2,0.9,0.4,1.4l0.4,1.1l0.5-0.9c0.3-0.6,0.8-0.9,1.2-1.1c0.2-0.1,0.6-0.2,1-0.2c0.4-0.1,0.9-0.1,1.4-0.1
		c0.5,0,0.9,0.2,1.3,0.4c0.4,0.2,0.7,0.6,1,1.1L114.9,41z"/>
	<path class="st4" d="M165.8,50.1c-0.9-0.1-1.8-0.3-2.6-0.6c-0.9-0.3-1.7-0.6-2.6-1.1l-0.3-7.3c-0.1-0.1-0.3-0.4-0.8-0.9
		c-0.4-0.5-0.9-1-1.4-1.4l-0.5-0.3l-0.5,1.3c-0.3,0.7-0.6,1.4-1.2,2.3c-0.5,0.9-1.3,1.8-2.1,2.7c-0.9,0.9-1.9,1.7-3.2,2.5
		c-1.3,0.8-2.7,1.4-4.4,1.8l-0.3,0c-0.6,0-1.5-0.2-2.9-0.7l-1.9-0.8c0.7-0.1,1.4-0.4,2.2-0.9c0.8-0.5,1.5-1.1,2.2-1.9
		c0.6-0.8,1.2-1.6,1.6-2.6c0.4-1,0.6-2,0.6-3c0-0.4-0.1-0.9-0.3-1.5c-0.2-0.6-0.4-1.3-0.7-2.1c-0.3-0.7-0.6-1.5-0.9-2.3
		c-0.3-0.8-0.7-1.6-1-2.3c-0.3-0.7-0.6-1.4-0.8-2c-0.2-0.6-0.3-1-0.4-1.3l-3.3,0.1l-1.7-2.1l5-0.1c0.1-1.2,0.4-2.3,0.9-3.2
		c0.5-0.9,1.1-1.8,1.9-2.5l0.8-0.8c0.3-0.2,0.6-0.3,0.9-0.3c0.5,0,1.2,0.3,1.9,0.9l0.1,0.2l0.1,0c-0.8,0.9-1.3,1.7-1.6,2.6
		c-0.3,0.8-0.4,1.8-0.3,2.8c0,0.9,0.2,1.8,0.6,2.6c0.9,2.2,1.7,4.1,2.2,5.6c0.6,1.5,0.8,2.8,0.9,3.8c0,0.4,0,0.7,0,1s0,0.5,0,0.8
		l-0.1,0.6l-0.5,1.9l0.6-0.7c0.4-0.5,0.8-1.2,1.3-2.2c0.4-1,0.8-2.3,1.1-3.9c0.1-0.6,0.3-1,0.6-1.1c0.3-0.2,0.6-0.3,0.8-0.3l0.4,0
		c0.9,0,2.3,1.1,4.1,3.2l-0.3-9l-9.2,0.2c0-0.1,0.1-0.3,0.2-0.5c0.1-0.2,0.3-0.4,0.6-0.7c0.3-0.2,0.6-0.4,1-0.6
		c0.4-0.2,0.9-0.3,1.4-0.4l12.3-0.2l1.7,2.1l-2.8,0L165.8,50.1z"/>
	<path class="st4" d="M173.7,51.9L173.7,51.9c-2.8-1.3-4.2-2.5-4.5-3.7c0-0.3,0.7-4.7,2.2-13.3c0.6-4-0.2-6.3-2.4-7.1l-1.3-2.4
		l1.7,0.3c1.6,0.2,2.6,1.3,3,3.3l1-6.1c0.3,0,0.6,0.2,1,0.4c0.4,0.2,0.7,0.4,1.1,0.7c0.3,0.2,0.7,0.5,1,0.7c0.3,0.2,0.5,0.4,0.7,0.6
		c0.2,0.2,0.4,0.5,0.6,0.8c0.1,0.3,0.3,0.7,0.3,1l2.4,0.4l1.3,2.4l-4.1-0.6L173.7,51.9z"/>
	<path class="st4" d="M182.2,53.8L182.2,53.8c-2.6-1.5-4-2.8-4.2-4.1c0-0.3,1.8-6.8,5.3-19.4l-2.1-0.5l-1.1-2.5l3.7,0.9l-0.6-1.7
		c-0.4-1.1-0.5-2.1-0.2-3.1c0.2-0.7,0.7-1.4,1.5-2.2c0.8-0.7,1.9-1.3,3.3-1.8c1.4-0.5,3.1-0.8,5.1-0.8c2-0.1,4.2,0.2,6.7,0.8
		c5.3,1.5,9.3,3.9,12,7.4c1.5,1.9,2.1,3.2,2,3.7c-0.1,0.3-0.4,0.3-0.9,0.2c-0.9-0.2-1.6-0.5-2-0.7c-0.5-0.3-0.8-0.6-1-0.8
		c-0.2-0.3-0.3-0.5-0.3-0.8c0-0.2,0-0.4,0-0.5l0.1-0.3c0.1-0.2,0.2-0.4,0.2-0.4l-0.1-0.1c-1.8-2.4-4.3-4-7.5-4.8
		c-1.9-0.5-3.6-0.7-5.2-0.7c-1.6,0-3,0.2-4.3,0.6c-1.2,0.4-2.3,1-3.1,1.7c-0.8,0.7-1.3,1.6-1.6,2.5c-0.1,0.3-0.1,0.7-0.1,1.2
		c0,0.5,0.3,1.1,0.8,1.7l1.8,0.4l1,2.4l-3.2-0.8L182.2,53.8z"/>
	<path class="st4" d="M200,35.3l-7.9,17l1.3-0.1c0.2-0.1,0.6-0.2,1.3-0.4c0.6-0.2,1.5-0.5,2.5-0.9l2.8-1.2l-0.1,0
		c0,0-0.1-0.1-0.4-0.3c-1.7-1.4-2.4-2.4-2.1-3c0.1-0.2,0.4-0.6,0.9-1.1c0.5-0.5,1-1,1.6-1.5c0.6-0.5,1.2-0.9,1.7-1.3
		c0.6-0.4,0.9-0.6,1.2-0.6c0.3-0.1,0.8,0.1,1.5,0.4c0.1,0,0.3,0.2,0.7,0.3c0.4,0.2,0.8,0.4,1.2,0.7c0.4,0.3,0.8,0.5,1.2,0.7
		c0.4,0.2,0.6,0.4,0.7,0.6c0.2,0.2,0.2,0.7,0.2,1.5c-0.1,0.8-0.3,1.7-0.9,2.9c-0.4,0.8-0.9,1.6-1.6,2.4c-0.7,0.8-1.6,1.5-2.8,2.1
		c-1.2,0.6-2.6,1.2-4.3,1.6c-1.7,0.5-3.8,0.8-6.2,1c-2,0.1-3.2,0.1-3.8-0.1l-0.1,0c-0.3-0.3-0.6-0.6-0.9-0.9c-0.3-0.3-0.5-0.6-0.8-1
		l-0.8-1.2c0-0.1-0.1-0.1-0.1-0.1l8.8-19.2l-2.7-1.1l-0.2-2.4l14.9,6c1-0.9,1.6-1.8,2-2.6c0.5-1.1,0.5-2.1-0.2-3
		c-0.6-0.9-2-1.8-4.2-2.6c-0.7-0.3-1.5-0.6-2.4-0.8c-0.9-0.2-1.7-0.4-2.4-0.6c-0.8-0.1-1.4-0.2-2-0.3s-1,0-1.2,0.2c0,0-0.1,0-0.1,0
		c-0.1,0-0.2,0.1-0.5,0.1c-1,0.2-2.2,0-3.7-0.6l-0.6-0.3l0-0.1c0.1-0.1,0.1-0.3,0.2-0.4c0.1-0.2,0.3-0.3,0.7-0.5
		c0.3-0.2,0.8-0.3,1.5-0.4c0.7-0.1,1.6-0.2,2.7-0.3c2.3-0.1,5.5,0.6,9.6,2.3l0.4,0.2c1.7,0.7,3,1.5,4.1,2.2c1.1,0.8,1.8,1.5,2.3,2.3
		c0.5,0.8,0.7,1.6,0.7,2.5c0,0.9-0.2,1.8-0.7,2.8c-0.1,0.3-0.3,0.6-0.5,0.9c-0.2,0.3-0.4,0.6-0.6,0.9l0.1,0.1l0.6,2.6L200,35.3z"/>
	<path class="st4" d="M205,29.7c-0.2-0.1-0.5-0.3-1-0.6c-0.4-0.3-0.9-0.5-1.3-0.9l-0.6-0.5l2-0.6c1-0.3,2.1-0.6,3.5-1
		c1.4-0.4,2.7-0.7,4.1-1.1c1.4-0.3,2.6-0.6,3.8-0.8c1.2-0.2,2-0.3,2.6-0.2c0.5,0.1,0.9,0.1,1.3,0.3c0.4,0.1,0.7,0.3,1,0.4
		c0.5,0.2,0.9,0.5,1.2,0.9l0.4,0.4l-1.4,0.7c-2.2,1-4.1,1.9-5.7,2.5c-1.5,0.6-2.9,1.1-4.1,1.3c-1.2,0.2-2.2,0.3-3.1,0.1
		C206.9,30.5,206,30.1,205,29.7z"/>
	<path class="st4" d="M207.6,64.7L207.6,64.7c-2-2.1-2.9-3.7-2.7-5c0.1-0.3,3.8-6,11.2-17.1l-1.9-1.1l-0.3-2.6l3.3,1.9l-0.1-1.7
		c-0.1-1.1,0.2-2.1,0.8-3c0.4-0.6,1.1-1.2,2.2-1.7c1-0.5,2.3-0.8,3.8-0.8c1.5-0.1,3.2,0.1,5.1,0.5c1.9,0.4,4,1.3,6.2,2.5
		c4.6,2.8,7.7,6.2,9.2,10.2c0.8,2.2,1,3.6,0.7,4c-0.1,0.2-0.5,0.2-0.9-0.1c-0.8-0.4-1.3-0.9-1.7-1.2c-0.4-0.4-0.6-0.7-0.7-1
		c-0.1-0.3-0.1-0.6,0-0.8c0.1-0.2,0.1-0.4,0.2-0.4l0.2-0.3c0.2-0.2,0.3-0.3,0.4-0.3l0-0.1c-1-2.7-2.9-4.9-5.7-6.5
		c-1.7-0.9-3.3-1.6-4.8-2c-1.5-0.4-3-0.6-4.3-0.5c-1.3,0.1-2.5,0.3-3.5,0.8c-1,0.5-1.8,1.1-2.3,2c-0.2,0.3-0.3,0.6-0.4,1.1
		c-0.1,0.5-0.1,1.1,0.2,1.8l1.6,0.9l0.2,2.6l-2.8-1.6L207.6,64.7z"/>
	<path class="st4" d="M224.2,76.8l-1.6-1.7c-1.3-1.4-2.5-3.4-3.7-6c-1.2-2.6-2.3-5.7-3.5-9.4l0.3-0.1c0.6-0.1,1.3-0.2,2.2-0.4
		c0.9-0.2,1.8-0.3,2.8-0.6c1-0.2,1.9-0.4,2.9-0.6c1-0.2,1.9-0.4,2.7-0.6c0.8-0.2,1.5-0.4,2.1-0.6c0.5-0.2,0.9-0.3,1-0.4
		c0.5-0.5,0.7-1.3,0.7-2.4c0-1.2-0.2-2.4-0.5-3.7l-3.9-3.3l0.3-2.6l26,21.7l-0.3,2.6l-17.9-14.9c0,3.3-0.9,5.9-2.6,8
		c-0.2,0.3-0.4,0.5-0.5,0.6c-0.2,0.2-0.2,0.3-0.3,0.4l-0.1,0.1l-9.4,2.3c0.5,1.4,0.9,2.6,1.3,3.6c0.3,1,0.6,1.7,0.8,2.2L236.4,57
		l4,3.3c0.7,0.9,1.2,1.9,1.6,3.1c0.4,1.1,0.7,2.3,0.8,3.6c0.1,1.2,0.1,2.5-0.1,3.8c-0.2,1.3-0.5,2.5-1,3.7c-0.1,0.3-0.3,0.6-0.5,0.8
		c-0.2,0.3-0.4,0.5-0.6,0.7c-0.3,0.3-0.9,0.8-1.8,1.3c-0.9,0.5-1.8,0.9-2.8,1.3c-1,0.4-2,0.6-2.9,0.8s-1.7,0-2.2-0.4
		c-0.5-0.4-0.8-0.9-1.2-1.4c-0.3-0.5-0.6-1-0.7-1.6c-0.2-0.6-0.2-1.1,0-1.7c0.1-0.6,0.5-1.1,1-1.7c0.7-0.7,1.3-1.2,2-1.6
		c0.7-0.4,1.3-0.7,1.8-0.9c0.6-0.2,1.1-0.3,1.5-0.3c0.4,0,0.8,0.1,1,0.2c0.5,0.4,0.9,0.9,1.1,1.5c0.3,0.6,0.4,1.1,0.4,1.4l0.7-0.5
		l0.5-0.5c0.4-0.4,0.7-0.9,0.8-1.4c0.1-0.5,0.2-1.1,0.1-1.7c-0.1-0.7-0.4-1.4-0.7-2.3c-0.4-0.9-0.9-1.9-1.5-3.1L224.2,76.8z"/>
	<path class="st4" d="M234.9,97.7l-0.4-0.6c-0.6-1.1-1-2.2-1.2-3.5c-0.2-1.3-0.2-2.5,0.1-3.8c0.3-1.3,0.8-2.5,1.5-3.7
		c0.7-1.2,1.7-2.2,3-3.2c2.7-1.9,5.7-3.2,8.9-3.9l2.7-0.5c3.7-0.6,6.1-1.3,7.3-2.1l0.2-0.2l-4.7-5.6l0.8-2.5l7.8,9.3l-0.8,2.5
		l-1.5-1.8c-0.7,1-1.5,1.8-2.4,2.4c-1.5,1-3.6,1.9-6.4,2.6c-1.8,0.5-3.6,1-5.3,1.7c-1.7,0.7-3.3,1.5-4.7,2.5c-0.7,0.5-1.3,1-1.8,1.6
		c-0.6,0.6-1,1.3-1.3,2c-0.3,0.7-0.4,1.4-0.4,2.1c0,0.7,0.3,1.4,0.9,2.1l0.1,0.1c0.3-0.9,0.8-1.6,1.6-2.1c0.4-0.3,1-0.5,1.6-0.4
		c0.6,0,1.1,0.3,1.5,0.8c0.2,0.3,0.4,0.6,0.5,1.2c0.1,0.5,0.2,1,0.2,1.6c0,0.6-0.1,1.1-0.3,1.6c-0.2,0.5-0.5,1-1,1.3
		c-0.4,0.2-0.8,0.4-1.3,0.5c-0.5,0.1-1.1,0-1.7-0.1c-0.6-0.1-1.2-0.4-1.8-0.7C235.9,98.7,235.3,98.2,234.9,97.7z"/>
	<path class="st4" d="M249.3,108.7c-0.1-0.1-0.3-0.9-0.7-2.3c-0.8-2.6-1.3-5.4-1.6-8.3c-0.3-2.9-0.3-6-0.1-9.3
		c0.2-0.1,0.6-0.1,1.4,0c0.8,0.1,1.8,0.2,2.9,0.4c1.2,0.2,2.5,0.5,4,0.8c1.5,0.3,3,0.7,4.5,1.1c1.5,0.4,3.1,0.8,4.6,1.2
		s2.9,0.9,4.1,1.4l0.3-0.1l-7.6-13.2l1.2-2.4l17.2,29.8l-1.3,2.3l-5.8-10.1c0,0.2,0,0.6-0.1,1.2c0,0.6-0.1,1.2-0.2,1.9
		c-0.1,0.7-0.2,1.5-0.4,2.3c-0.1,0.8-0.3,1.6-0.5,2.4c-0.2,0.8-0.5,1.6-0.8,2.3c-0.3,0.7-0.6,1.3-1,1.8c-0.4,0.5-1,0.9-1.7,1.2
		c-0.3,0.1-0.7,0.3-1.2,0.4c-0.5,0.1-1.1,0.3-1.7,0.4c-0.7,0.1-1.3,0.1-2.1,0.2c-0.7,0-1.5-0.1-2.2-0.2c-0.8-0.1-1.4-0.3-1.9-0.4
		c-0.5-0.2-0.8-0.4-1-0.6c-0.3-0.5-0.5-1-0.7-1.6c-0.2-0.6-0.2-1.2-0.2-1.8c0.1-0.6,0.3-1.2,0.6-1.7c0.3-0.5,0.9-1,1.7-1.3
		c1.6-0.8,3-1.2,4.3-1.2c1.2,0,2,0.2,2.3,0.7c0.3,0.5,0.4,1,0.4,1.6c0,0.6,0,1.1-0.2,1.4l0.2,0c0.3,0,0.6-0.1,0.9-0.2
		c0.3-0.2,0.7-0.5,1-0.9c0.3-0.4,0.5-1,0.7-1.8c0.2-0.8,0.3-1.7,0.4-2.8c0.1-1.1,0-2.4-0.1-3.9L249.3,108.7z M249.9,102.6l10.4-5
		c-0.2-0.1-0.8-0.2-1.8-0.4c-1-0.2-2.3-0.4-4-0.7l-5-0.8l-0.1,0.8c0,0.4,0,0.8-0.1,1.3c0,0.5,0,1.1,0,1.6c0,0.6,0.1,1.1,0.2,1.7
		C249.6,101.7,249.7,102.2,249.9,102.6z"/>
	<path class="st4" d="M280.7,119.2l-19.4,5.1l1,0.9c0.2,0.1,0.6,0.3,1.2,0.7c0.6,0.3,1.4,0.7,2.4,1.2l2.8,1.2l0-0.1c0,0,0-0.2,0-0.5
		c0.1-2.1,0.5-3.2,1.1-3.3c0.3-0.1,0.8-0.1,1.5,0c0.7,0.1,1.5,0.1,2.3,0.2s1.5,0.2,2.2,0.4c0.7,0.2,1.1,0.3,1.3,0.4
		c0.2,0.2,0.4,0.6,0.7,1.3c0,0.1,0.1,0.3,0.2,0.7c0.1,0.4,0.2,0.8,0.2,1.3c0.1,0.5,0.1,0.9,0.2,1.3c0,0.4,0.1,0.7,0,0.9
		c-0.1,0.3-0.5,0.6-1.1,1c-0.7,0.4-1.7,0.8-3,1.2c-0.9,0.2-1.9,0.4-3,0.4c-1.1,0-2.3-0.2-3.6-0.6c-1.3-0.4-2.7-1.1-4.2-2
		c-1.5-0.9-3.1-2.2-4.8-3.8c-1.4-1.3-2.2-2.2-2.3-2.7l0-0.1c0-0.4,0.1-0.8,0.2-1.2c0.1-0.4,0.2-0.8,0.3-1.2l0.5-1.3
		c0-0.1,0.1-0.1,0.1-0.1l21.9-5.7l-0.8-2.6l1.9-1.6l4.6,14.3c1.4,0.1,2.5,0,3.5-0.2c1.3-0.3,2.1-1,2.4-2c0.3-1,0.2-2.5-0.5-4.6
		c-0.2-0.7-0.5-1.4-0.9-2.2c-0.4-0.7-0.7-1.4-1.1-2.1c-0.4-0.6-0.7-1.2-1.1-1.6c-0.4-0.4-0.7-0.7-0.9-0.8c0,0,0-0.1-0.1-0.1
		c0,0-0.2-0.1-0.4-0.2c-0.8-0.6-1.5-1.6-1.9-2.9l-0.2-0.6l0.1,0c0.2,0,0.3-0.1,0.5-0.1c0.2,0,0.5,0,0.8,0.2c0.3,0.1,0.8,0.4,1.3,0.8
		c0.5,0.4,1.2,1,2,1.8c1.6,1.6,3.1,4.3,4.3,8.2l0.1,0.4c0.5,1.6,0.7,3.1,0.8,4.3c0,1.2-0.1,2.3-0.4,3.1c-0.3,0.9-0.9,1.5-1.6,2.1
		c-0.7,0.5-1.7,1-2.8,1.2c-0.3,0.1-0.7,0.2-1.1,0.2c-0.4,0.1-0.8,0.1-1.2,0.2l0,0.1l-1.7,2L280.7,119.2z"/>
</g>
<g>
	
		<linearGradient id="SVGID_5_" gradientUnits="userSpaceOnUse" x1="-143.538" y1="570.7858" x2="-143.2958" y2="570.7858" gradientTransform="matrix(512 0 0 -356.7897 73584.0078 203782.3594)">
		<stop  offset="0" style="stop-color:#26A6FE"/>
		<stop  offset="1" style="stop-color:#2740B0"/>
	</linearGradient>
	<path class="st9" d="M207,172.3H102.1c-5.3,0-9.6-4-9.6-8.9v-62.9c0-4.9,4.3-8.9,9.6-8.9H207c5.3,0,9.6,4,9.6,8.9v62.9
		C216.5,168.2,212.2,172.3,207,172.3z"/>
	
		<linearGradient id="SVGID_6_" gradientUnits="userSpaceOnUse" x1="113.8651" y1="191.5022" x2="106.5779" y2="198.7892" gradientTransform="matrix(1.0039 0 0 -1.0039 0.5647 304.1327)">
		<stop  offset="0" style="stop-color:#2740B0;stop-opacity:0"/>
		<stop  offset="0.257" style="stop-color:#253DAA;stop-opacity:0.257"/>
		<stop  offset="0.604" style="stop-color:#213699;stop-opacity:0.604"/>
		<stop  offset="1" style="stop-color:#192A7D"/>
	</linearGradient>
	<path class="st10" d="M92.5,116.5v29.8l58.7-54.9h-31.9L92.5,116.5z"/>
	
		<linearGradient id="SVGID_7_" gradientUnits="userSpaceOnUse" x1="-143.538" y1="570.5364" x2="-143.2958" y2="570.5364" gradientTransform="matrix(512 0 0 -166.1761 73584.0078 94962.9688)">
		<stop  offset="0" style="stop-color:#2740B0;stop-opacity:0"/>
		<stop  offset="1" style="stop-color:#192A7D"/>
	</linearGradient>
	<path class="st11" d="M92.5,134.6v28.7c0,4.9,4.3,8.9,9.6,8.9H207c5.3,0,9.6-4,9.6-8.9v-28.7H92.5z"/>
	
		<linearGradient id="SVGID_8_" gradientUnits="userSpaceOnUse" x1="-143.2182" y1="570.4653" x2="-142.976" y2="570.4653" gradientTransform="matrix(155.9653 0 0 -144.2073 22466.2188 82421.1953)">
		<stop  offset="0" style="stop-color:#2740B0;stop-opacity:0"/>
		<stop  offset="1" style="stop-color:#192A7D"/>
	</linearGradient>
	<path class="st12" d="M129.2,172.3h37.8l-26-24.3l-3.3-0.4l-8.5-8L129.2,172.3z"/>
	
		<linearGradient id="SVGID_9_" gradientUnits="userSpaceOnUse" x1="-143.5294" y1="570.6855" x2="-143.2873" y2="570.6855" gradientTransform="matrix(464.0939 0 0 -305.9622 66709.4766 174740.0156)">
		<stop  offset="0" style="stop-color:#FFFFFF"/>
		<stop  offset="1" style="stop-color:#D8ECFE"/>
	</linearGradient>
	<path class="st13" d="M202.3,97.2h-95.5c-4.7,0-8.4,3.5-8.4,7.9v53.5c0,4.4,3.8,7.9,8.4,7.9h95.5c4.7,0,8.4-3.5,8.4-7.9v-53.5
		C210.7,100.7,207,97.2,202.3,97.2z"/>
	
		<linearGradient id="SVGID_10_" gradientUnits="userSpaceOnUse" x1="-142.8677" y1="570.0455" x2="-142.6255" y2="570.0455" gradientTransform="matrix(192.8664 0 0 -192.8674 27652.7148 110062.2344)">
		<stop  offset="0" style="stop-color:#A8D3D8;stop-opacity:0"/>
		<stop  offset="1" style="stop-color:#6CABCA"/>
	</linearGradient>
	<path class="st14" d="M98.3,111.1v29.8L145,97.2h-31.9L98.3,111.1z"/>
	
		<linearGradient id="SVGID_11_" gradientUnits="userSpaceOnUse" x1="-143.066" y1="570.1848" x2="-142.8238" y2="570.1848" gradientTransform="matrix(130.552 0 0 -118.794 18806.707 67887.6016)">
		<stop  offset="0" style="stop-color:#A8D3D8;stop-opacity:0"/>
		<stop  offset="1" style="stop-color:#6CABCA"/>
	</linearGradient>
	<path class="st15" d="M129.2,166.5h31.6l-19.8-18.6l-3.3-0.4l-8.5-8L129.2,166.5z"/>
	
		<linearGradient id="SVGID_12_" gradientUnits="userSpaceOnUse" x1="-138.7509" y1="567.2476" x2="-138.5087" y2="567.2476" gradientTransform="matrix(38.5165 0 0 -57.8138 5447.7026 32919.5977)">
		<stop  offset="0" style="stop-color:#5A5A5A"/>
		<stop  offset="1" style="stop-color:#444444"/>
	</linearGradient>
	<path class="st16" d="M108.2,120.7c1.6,0,1.7,1.1,1.7,1.6c0,0.6,0.7,0.8,1.5,0.8c1,0,1.5-0.2,1.5-1.3c0-2.3-2.1-3.5-4.8-3.5
		c-2.5,0-4.6,1.1-4.6,4.2v4.7c0,3.1,2.1,4.2,4.6,4.2c2.7,0,4.8-1.4,4.8-3.7c0-1.1-0.5-1.3-1.5-1.3c-0.8,0-1.4,0.2-1.5,0.8
		c-0.1,0.7-0.2,1.8-1.7,1.8c-1.1,0-1.7-0.6-1.7-1.8v-4.7C106.5,121.3,107.1,120.7,108.2,120.7z"/>
	
		<linearGradient id="SVGID_13_" gradientUnits="userSpaceOnUse" x1="-139.4451" y1="567.2105" x2="-139.2029" y2="567.2105" gradientTransform="matrix(36.9473 0 0 -57.344 5266.4634 32650.9102)">
		<stop  offset="0" style="stop-color:#5A5A5A"/>
		<stop  offset="1" style="stop-color:#444444"/>
	</linearGradient>
	<path class="st17" d="M122.4,120.7c0.6,0,0.9-0.6,0.9-1.2c0-0.6-0.3-1.2-0.9-1.2h-6.8c-0.6,0-1.3,0.3-1.3,0.9v11.3
		c0,0.6,0.6,0.9,1.3,0.9h6.8c0.6,0,0.9-0.6,0.9-1.2c0-0.7-0.3-1.2-0.9-1.2h-5.1v-3h2.8c0.6,0,0.9-0.6,0.9-1c0-0.6-0.3-1.1-0.9-1.1
		h-2.8v-3L122.4,120.7z"/>
	
		<linearGradient id="SVGID_14_" gradientUnits="userSpaceOnUse" x1="-140.5742" y1="567.2477" x2="-140.332" y2="567.2477" gradientTransform="matrix(39.7724 0 0 -57.8148 5715.5488 32920.168)">
		<stop  offset="0" style="stop-color:#5A5A5A"/>
		<stop  offset="1" style="stop-color:#444444"/>
	</linearGradient>
	<path class="st18" d="M131.8,125.7c1.3-0.5,2.3-1.6,2.3-3.6c0-2.9-2.1-3.8-4.7-3.8h-3.9c-0.6,0-0.9,0.4-0.9,0.8v11.3
		c0,0.6,0.7,0.9,1.5,0.9s1.5-0.3,1.5-0.9v-4.3h1.3l2.6,4.7c0.2,0.4,0.6,0.5,0.9,0.5c0.9,0,1.9-0.7,1.9-1.4c0-0.1,0-0.2-0.1-0.3
		L131.8,125.7z M129.4,124h-1.9v-3.3h1.9c1.1,0,1.7,0.4,1.7,1.7C131.1,123.6,130.5,124,129.4,124z"/>
	
		<linearGradient id="SVGID_15_" gradientUnits="userSpaceOnUse" x1="-141.4616" y1="567.2106" x2="-141.2194" y2="567.2106" gradientTransform="matrix(41.2632 0 0 -57.345 5971.8052 32651.4785)">
		<stop  offset="0" style="stop-color:#5A5A5A"/>
		<stop  offset="1" style="stop-color:#444444"/>
	</linearGradient>
	<path class="st19" d="M143.7,118.3h-8.2c-0.6,0-0.9,0.6-0.9,1.2c0,0.7,0.3,1.3,0.9,1.3h2.6v9.6c0,0.6,0.7,0.9,1.5,0.9
		c0.7,0,1.5-0.3,1.5-0.9v-9.6h2.6c0.6,0,0.9-0.6,0.9-1.3C144.6,118.9,144.4,118.3,143.7,118.3z"/>
	
		<linearGradient id="SVGID_16_" gradientUnits="userSpaceOnUse" x1="-138.2974" y1="567.2105" x2="-138.0552" y2="567.2105" gradientTransform="matrix(12.2378 0 0 -57.344 1838.2767 32650.9004)">
		<stop  offset="0" style="stop-color:#5A5A5A"/>
		<stop  offset="1" style="stop-color:#444444"/>
	</linearGradient>
	<path class="st20" d="M147.3,118.3c-0.7,0-1.5,0.2-1.5,0.8v11.3c0,0.6,0.7,0.9,1.5,0.9c0.7,0,1.5-0.3,1.5-0.9v-11.3
		C148.8,118.5,148,118.3,147.3,118.3z"/>
	
		<linearGradient id="SVGID_17_" gradientUnits="userSpaceOnUse" x1="-142.5075" y1="567.2105" x2="-142.2653" y2="567.2105" gradientTransform="matrix(36.2426 0 0 -57.344 5315.6709 32650.9102)">
		<stop  offset="0" style="stop-color:#5A5A5A"/>
		<stop  offset="1" style="stop-color:#444444"/>
	</linearGradient>
	<path class="st21" d="M158.7,118.3h-6.6c-0.6,0-1.3,0.3-1.3,0.9v11.3c0,0.6,0.7,0.9,1.5,0.9c0.7,0,1.5-0.3,1.5-0.9v-4.6h2.9
		c0.6,0,0.9-0.6,0.9-1c0-0.6-0.3-1.1-0.9-1.1h-2.9v-3h4.9c0.6,0,0.9-0.6,0.9-1.2C159.6,118.9,159.3,118.3,158.7,118.3L158.7,118.3z"
		/>
	
		<linearGradient id="SVGID_18_" gradientUnits="userSpaceOnUse" x1="-142.0816" y1="567.2105" x2="-141.8394" y2="567.2105" gradientTransform="matrix(12.2378 0 0 -57.344 1899.3865 32650.9004)">
		<stop  offset="0" style="stop-color:#5A5A5A"/>
		<stop  offset="1" style="stop-color:#444444"/>
	</linearGradient>
	<path class="st22" d="M162.1,118.3c-0.7,0-1.5,0.2-1.5,0.8v11.3c0,0.6,0.7,0.9,1.5,0.9c0.7,0,1.5-0.3,1.5-0.9v-11.3
		C163.6,118.5,162.8,118.3,162.1,118.3z"/>
	
		<linearGradient id="SVGID_19_" gradientUnits="userSpaceOnUse" x1="-143.7856" y1="567.2476" x2="-143.5434" y2="567.2476" gradientTransform="matrix(38.5165 0 0 -57.8138 5703.5952 32919.5977)">
		<stop  offset="0" style="stop-color:#5A5A5A"/>
		<stop  offset="1" style="stop-color:#444444"/>
	</linearGradient>
	<path class="st23" d="M170.2,120.7c1.6,0,1.7,1.1,1.7,1.6c0,0.6,0.7,0.8,1.5,0.8c1,0,1.5-0.2,1.5-1.3c0-2.3-2.1-3.5-4.8-3.5
		c-2.5,0-4.6,1.1-4.6,4.2v4.7c0,3.1,2.1,4.2,4.6,4.2c2.7,0,4.8-1.4,4.8-3.7c0-1.1-0.5-1.3-1.5-1.3c-0.8,0-1.4,0.2-1.5,0.8
		c-0.1,0.7-0.2,1.8-1.7,1.8c-1.1,0-1.7-0.6-1.7-1.8v-4.7C168.4,121.3,169.1,120.7,170.2,120.7z"/>
	
		<linearGradient id="SVGID_20_" gradientUnits="userSpaceOnUse" x1="-144.4971" y1="567.2414" x2="-144.2549" y2="567.2414" gradientTransform="matrix(45.575 0 0 -57.8148 6760.8208 32919.7031)">
		<stop  offset="0" style="stop-color:#5A5A5A"/>
		<stop  offset="1" style="stop-color:#444444"/>
	</linearGradient>
	<path class="st24" d="M182.8,119.1c-0.2-0.6-1.1-0.9-1.9-0.9c-0.9,0-1.7,0.3-1.9,0.9l-3.5,10.8c0,0.1,0,0.1,0,0.2
		c0,0.7,1.1,1.1,1.9,1.1c0.5,0,0.9-0.1,1-0.5l0.6-2.2h4l0.6,2.2c0.1,0.4,0.5,0.5,1,0.5c0.8,0,1.9-0.5,1.9-1.1c0-0.1,0-0.1,0-0.2
		L182.8,119.1z M179.5,126.4l1.4-4.8l1.4,4.8H179.5z"/>
	
		<linearGradient id="SVGID_21_" gradientUnits="userSpaceOnUse" x1="-145.3126" y1="567.2106" x2="-145.0704" y2="567.2106" gradientTransform="matrix(41.2632 0 0 -57.345 6181.4897 32651.4785)">
		<stop  offset="0" style="stop-color:#5A5A5A"/>
		<stop  offset="1" style="stop-color:#444444"/>
	</linearGradient>
	<path class="st25" d="M194.5,118.3h-8.2c-0.6,0-0.9,0.6-0.9,1.2c0,0.7,0.3,1.3,0.9,1.3h2.6v9.6c0,0.6,0.7,0.9,1.5,0.9
		c0.7,0,1.5-0.3,1.5-0.9v-9.6h2.6c0.6,0,0.9-0.6,0.9-1.3C195.4,118.9,195.2,118.3,194.5,118.3z"/>
	
		<linearGradient id="SVGID_23_" gradientUnits="userSpaceOnUse" x1="-146.412" y1="567.2106" x2="-146.1699" y2="567.2106" gradientTransform="matrix(36.9473 0 0 -57.344 5606.1318 32650.9102)">
		<stop  offset="0" style="stop-color:#5A5A5A"/>
		<stop  offset="1" style="stop-color:#444444"/>
	</linearGradient>
	<path class="st26" d="M204.7,128.9h-5.1v-3h2.8c0.6,0,0.9-0.6,0.9-1c0-0.6-0.3-1.1-0.9-1.1h-2.8v-3h5.1c0.6,0,0.9-0.6,0.9-1.2
		c0-0.6-0.3-1.2-0.9-1.2h-6.8c-0.6,0-1.3,0.3-1.3,0.9v11.3c0,0.6,0.6,0.9,1.3,0.9h6.8c0.6,0,0.9-0.6,0.9-1.2
		C205.5,129.4,205.2,128.9,204.7,128.9L204.7,128.9z"/>
	<g>
		<path class="st27" d="M142.4,150.4h11.7c1.4,0,2.6,1.1,2.6,2.4c0,1.3-1.2,2.4-2.6,2.4h-11.7c-1.4,0-2.6-1.1-2.6-2.4
			C139.9,151.5,141,150.4,142.4,150.4z M160.5,152.8c0-1.3,1.2-2.4,2.6-2.4h2.9c1.4,0,2.6,1.1,2.6,2.4c0,1.3-1.2,2.4-2.6,2.4h-2.9
			C161.7,155.2,160.5,154.1,160.5,152.8z M174.2,143.8h-39.9c-1.4,0-2.6-1.1-2.6-2.4c0-1.3,1.2-2.4,2.6-2.4h39.9
			c1.4,0,2.6,1.1,2.6,2.4C176.7,142.8,175.6,143.8,174.2,143.8L174.2,143.8z"/>
	</g>
	
		<linearGradient id="SVGID_24_" gradientUnits="userSpaceOnUse" x1="-142.5347" y1="571.1655" x2="-142.2925" y2="571.1655" gradientTransform="matrix(141.0349 0 0 -186.6047 20204.4414 106764.8516)">
		<stop  offset="0" style="stop-color:#FFFFFF"/>
		<stop  offset="1" style="stop-color:#D8ECFE"/>
	</linearGradient>
	<path class="st28" d="M102.1,200.9c0,2.2,2.8,3.3,4.5,1.8l0,0l1.7-1.6c1.7-1.6,4.4-1.6,6,0l1.7,1.6c1.7,1.6,4.4,1.6,6,0l1.7-1.6
		c1.7-1.6,4.4-1.6,6,0l1.7,1.6l0,0c1.7,1.5,4.5,0.4,4.5-1.8v-39.3h-34.2V200.9z"/>
	
		<linearGradient id="SVGID_26_" gradientUnits="userSpaceOnUse" x1="-142.436" y1="571.1913" x2="-142.1938" y2="571.1913" gradientTransform="matrix(123.7735 0 0 -153.2053 17736.0586 87695.5781)">
		<stop  offset="0" style="stop-color:#A8D3D8;stop-opacity:0"/>
		<stop  offset="1" style="stop-color:#6CABCA"/>
	</linearGradient>
	<path class="st29" d="M106.3,168.7v14l18.8,17.6c1.6-0.7,3.6-0.5,4.9,0.8l1.7,1.6l0,0c1.7,1.5,4.5,0.4,4.5-1.8v-32.2H106.3z"/>
	
		<linearGradient id="SVGID_27_" gradientUnits="userSpaceOnUse" x1="-139.0445" y1="571.1592" x2="-138.8024" y2="571.1592" gradientTransform="matrix(41.7039 0 0 -184.7076 5900.7788 105679.9063)">
		<stop  offset="0" style="stop-color:#FD4755"/>
		<stop  offset="1" style="stop-color:#A72B2B"/>
	</linearGradient>
	<path class="st30" d="M112.2,161.6h-10.1v39.3c0,2.2,2.8,3.3,4.5,1.8l0,0l1.7-1.6c1-1,2.5-1.3,3.8-1.1V161.6z"/>
	
		<linearGradient id="SVGID_29_" gradientUnits="userSpaceOnUse" x1="-140.8494" y1="571.1592" x2="-140.6073" y2="571.1592" gradientTransform="matrix(41.7029 0 0 -184.7064 5999.9619 105679.2266)">
		<stop  offset="0" style="stop-color:#26A6FE"/>
		<stop  offset="1" style="stop-color:#2740B0"/>
	</linearGradient>
	<path class="st31" d="M126.1,161.6v38.4c1.3-0.2,2.8,0.1,3.8,1.1l1.7,1.6l0,0c1.7,1.5,4.5,0.4,4.5-1.8v-39.3H126.1z"/>
	
		<linearGradient id="SVGID_30_" gradientUnits="userSpaceOnUse" x1="-140.8494" y1="571.1592" x2="-140.6073" y2="571.1592" gradientTransform="matrix(41.7029 0 0 -184.7064 5999.9619 105679.2266)">
		<stop  offset="0" style="stop-color:#2740B0;stop-opacity:0"/>
		<stop  offset="1" style="stop-color:#192A7D"/>
	</linearGradient>
	<path class="st32" d="M126.1,161.6v38.4c1.3-0.2,2.8,0.1,3.8,1.1l1.7,1.6l0,0c1.7,1.5,4.5,0.4,4.5-1.8v-39.3H126.1z"/>
	
		<linearGradient id="SVGID_31_" gradientUnits="userSpaceOnUse" x1="103.8216" y1="109.6513" x2="107.8979" y2="136.8544" gradientTransform="matrix(1.0039 0 0 -1.0039 0.5647 304.1327)">
		<stop  offset="0" style="stop-color:#A72B2B;stop-opacity:0"/>
		<stop  offset="1" style="stop-color:#42210B"/>
	</linearGradient>
	<path class="st33" d="M112.2,168.7h-10.1v10.1l10.1,9.5V168.7z"/>
	
		<linearGradient id="SVGID_32_" gradientUnits="userSpaceOnUse" x1="-142.9242" y1="570.8598" x2="-142.682" y2="570.8598" gradientTransform="matrix(219.866 0 0 -210.8489 31516.7012 120527.3984)">
		<stop  offset="0" style="stop-color:#FEE45A"/>
		<stop  offset="1" style="stop-color:#FEA613"/>
	</linearGradient>
	<path class="st34" d="M144.5,165l-2.4,2.3c-0.9,0.9-1.4,2.2-1.2,3.4l0.5,3.2c0.3,2.2-1.2,4.2-3.5,4.6l-3.4,0.5
		c-1.3,0.2-2.5,1-3.1,2.1l-1.6,2.8c-1.1,1.9-3.6,2.7-5.7,1.7l-3.1-1.4c-1.2-0.6-2.6-0.6-3.8,0l-3.1,1.4c-2.1,1-4.6,0.2-5.7-1.7
		l-1.6-2.8c-0.6-1.1-1.8-1.9-3.1-2.1l-3.4-0.5c-2.3-0.4-3.9-2.4-3.5-4.6l0.5-3.2c0.2-1.2-0.2-2.5-1.2-3.4l-2.4-2.3
		c-1.6-1.6-1.6-4.1,0-5.6l2.4-2.3c0.9-0.9,1.4-2.2,1.2-3.4l-0.5-3.2c-0.3-2.2,1.2-4.2,3.5-4.6l3.4-0.5c1.3-0.2,2.5-1,3.1-2.1
		l1.6-2.8c1.1-1.9,3.6-2.7,5.7-1.7l3.1,1.4c1.2,0.6,2.6,0.6,3.8,0l3.1-1.4c2.1-1,4.6-0.2,5.7,1.7l1.6,2.8c0.6,1.1,1.8,1.9,3.1,2.1
		l3.4,0.5c2.3,0.4,3.9,2.4,3.5,4.6l-0.5,3.2c-0.2,1.2,0.2,2.5,1.2,3.4l2.4,2.3C146.2,161,146.2,163.5,144.5,165z"/>
	
		<linearGradient id="SVGID_33_" gradientUnits="userSpaceOnUse" x1="135.5103" y1="123.968" x2="93.7965" y2="165.6817" gradientTransform="matrix(1.0039 0 0 -1.0039 0.5647 304.1327)">
		<stop  offset="0" style="stop-color:#FEE45A"/>
		<stop  offset="1" style="stop-color:#FEA613"/>
	</linearGradient>
	<ellipse class="st35" cx="119.2" cy="162.2" rx="19" ry="17.8"/>
	
		<linearGradient id="SVGID_34_" gradientUnits="userSpaceOnUse" x1="107.0954" y1="152.3828" x2="128.6982" y2="130.7801" gradientTransform="matrix(1.0039 0 0 -1.0039 0.5647 304.1327)">
		<stop  offset="0" style="stop-color:#FEE45A"/>
		<stop  offset="1" style="stop-color:#FEA613"/>
	</linearGradient>
	<ellipse class="st36" cx="119.2" cy="162.2" rx="16.2" ry="15.2"/>
	
		<linearGradient id="SVGID_35_" gradientUnits="userSpaceOnUse" x1="118.1285" y1="135.3718" x2="118.1285" y2="112.1879" gradientTransform="matrix(1.0039 0 0 -1.0039 0.5647 304.1327)">
		<stop  offset="0" style="stop-color:#FEA613;stop-opacity:0"/>
		<stop  offset="1" style="stop-color:#E94444"/>
	</linearGradient>
	<path class="st37" d="M96.2,167.3c0.9,0.9,1.4,2.2,1.2,3.4l-0.5,3.2c-0.3,2.2,1.2,4.2,3.5,4.6l3.4,0.5c1.3,0.2,2.5,1,3.1,2.1
		l1.6,2.8c1.1,1.9,3.6,2.7,5.7,1.7l3.1-1.4c1.2-0.6,2.6-0.6,3.8,0l3.1,1.4c2.1,1,4.6,0.2,5.7-1.7l1.6-2.8c0.6-1.1,1.8-1.9,3.1-2.1
		l3.4-0.5c2.3-0.4,3.9-2.4,3.5-4.6l-0.5-3.2c-0.2-1.2,0.2-2.5,1.2-3.4l2.4-2.3c0.8-0.8,1.2-1.8,1.2-2.8H92.5c0,1,0.4,2,1.2,2.8
		L96.2,167.3z"/>
	
		<linearGradient id="SVGID_36_" gradientUnits="userSpaceOnUse" x1="-144.3968" y1="569.0817" x2="-144.1546" y2="569.0817" gradientTransform="matrix(131.1855 0 0 -131.1845 19127.5195 74760.9688)">
		<stop  offset="0" style="stop-color:#FD4755"/>
		<stop  offset="1" style="stop-color:#A72B2B"/>
	</linearGradient>
	<path class="st38" d="M184.8,91.4l31.8,29.7v-15.5l-15.2-14.3H184.8z"/>
	
		<linearGradient id="SVGID_37_" gradientUnits="userSpaceOnUse" x1="-142.197" y1="569.0817" x2="-141.9548" y2="569.0817" gradientTransform="matrix(131.1855 0 0 -131.1845 18746.7051 74760.9688)">
		<stop  offset="0" style="stop-color:#FD4755"/>
		<stop  offset="1" style="stop-color:#A72B2B"/>
	</linearGradient>
	<path class="st39" d="M124.3,91.4l-31.8,29.7v-15.5l15.2-14.3H124.3z"/>
</g>
<g>
	<path class="st40" d="M280.6,159.8c0,1.6,1.7,3.5,1.2,4.9c-0.5,1.5-3.1,2.1-4.2,3.3c-0.1,0.1-0.2,0.2-0.2,0.4
		c-0.7,1.3-0.7,3.4-2,4.3c-1.4,0.9-3.8,0-5.5,0.5c-0.4,0.1-0.7,0.3-1.1,0.5c-1.2,0.8-2.3,2-3.7,2s-2.5-1.2-3.7-2
		c-0.3-0.2-0.7-0.4-1.1-0.5c-1.7-0.5-4.1,0.4-5.5-0.5c-1.3-0.8-1.2-2.9-2-4.3c-0.1-0.1-0.2-0.3-0.2-0.4c-1-1.3-3.6-1.8-4.2-3.3
		c-0.5-1.5,1.2-3.3,1.2-4.9s-1.7-3.5-1.2-4.9c0.5-1.5,3.1-2.1,4.2-3.3c1-1.3,0.8-3.7,2.2-4.6c1.4-0.9,3.8,0,5.5-0.5
		c1.6-0.5,3-2.6,4.8-2.6s3.2,2.1,4.8,2.6c1.7,0.5,4.1-0.4,5.5,0.5c1.4,0.9,1.2,3.3,2.2,4.6c1,1.3,3.6,1.8,4.2,3.3
		C282.3,156.3,280.6,158.2,280.6,159.8L280.6,159.8z"/>
	<ellipse class="st41" cx="265.2" cy="159.8" rx="12" ry="10.9"/>
	<path class="st42" d="M266.1,153.8l1.4,2.5c0.2,0.3,0.4,0.5,0.8,0.5l3,0.4c0.9,0.1,1.2,1.1,0.6,1.6l-2.2,1.9
		c-0.2,0.2-0.4,0.5-0.3,0.8l0.5,2.7c0.1,0.8-0.7,1.4-1.5,1l-2.7-1.3c-0.3-0.1-0.7-0.1-1,0l-2.7,1.3c-0.8,0.4-1.7-0.2-1.5-1l0.5-2.7
		c0.1-0.3-0.1-0.6-0.3-0.8l-2.2-1.9c-0.6-0.5-0.3-1.5,0.6-1.6l3-0.4c0.3,0,0.6-0.2,0.8-0.5l1.4-2.5
		C264.6,153.1,265.7,153.1,266.1,153.8L266.1,153.8z"/>
	<g>
		<path class="st43" d="M261.5,173.7l-3.1,7.3l-4.1-3l-5.2-0.4l4-9.2c0.7,1.3,0.7,3.4,2,4.3c1.4,0.9,3.8,0,5.5,0.5
			C260.8,173.2,261.1,173.4,261.5,173.7L261.5,173.7z M281.3,177.6l-5.2,0.4l-4.1,3l-3.1-7.3c0.3-0.2,0.7-0.4,1.1-0.5
			c1.7-0.5,4.1,0.4,5.5-0.5c1.3-0.8,1.2-2.9,2-4.3L281.3,177.6z"/>
	</g>
</g>
<g>
	<path class="st40" d="M57.1,159.8c0,1.6,1.7,3.5,1.2,4.9c-0.5,1.5-3.1,2.1-4.2,3.3c-0.1,0.1-0.2,0.2-0.2,0.4
		c-0.7,1.3-0.7,3.4-2,4.3c-1.4,0.9-3.8,0-5.5,0.5c-0.4,0.1-0.7,0.3-1.1,0.5c-1.2,0.8-2.3,2-3.7,2c-1.4,0-2.5-1.2-3.7-2
		c-0.3-0.2-0.7-0.4-1.1-0.5c-1.7-0.5-4.1,0.4-5.5-0.5c-1.3-0.8-1.2-2.9-2-4.3c-0.1-0.1-0.2-0.3-0.2-0.4c-1-1.3-3.6-1.8-4.2-3.3
		c-0.5-1.5,1.2-3.3,1.2-4.9s-1.7-3.5-1.2-4.9c0.5-1.5,3.1-2.1,4.2-3.3c1-1.3,0.8-3.7,2.2-4.6c1.4-0.9,3.8,0,5.5-0.5
		c1.6-0.5,3-2.6,4.8-2.6s3.2,2.1,4.8,2.6c1.7,0.5,4.1-0.4,5.5,0.5c1.4,0.9,1.2,3.3,2.2,4.6c1,1.3,3.6,1.8,4.2,3.3
		C58.8,156.3,57.1,158.2,57.1,159.8L57.1,159.8z"/>
	<ellipse class="st41" cx="41.7" cy="159.8" rx="12" ry="10.9"/>
	<path class="st42" d="M42.6,153.8l1.4,2.5c0.2,0.3,0.4,0.5,0.8,0.5l3,0.4c0.9,0.1,1.2,1.1,0.6,1.6l-2.2,1.9
		c-0.2,0.2-0.4,0.5-0.3,0.8l0.5,2.7c0.1,0.8-0.7,1.4-1.5,1l-2.7-1.3c-0.3-0.1-0.7-0.1-1,0l-2.7,1.3c-0.8,0.4-1.7-0.2-1.5-1l0.5-2.7
		c0.1-0.3-0.1-0.6-0.3-0.8l-2.2-1.9c-0.6-0.5-0.3-1.5,0.6-1.6l3-0.4c0.3,0,0.6-0.2,0.8-0.5l1.4-2.5
		C41.1,153.1,42.2,153.1,42.6,153.8L42.6,153.8z"/>
	<g>
		<path class="st43" d="M38,173.7l-3.1,7.3l-4.1-3l-5.2-0.4l4-9.2c0.7,1.3,0.7,3.4,2,4.3c1.4,0.9,3.8,0,5.5,0.5
			C37.3,173.2,37.6,173.4,38,173.7L38,173.7z M57.8,177.6l-5.2,0.4l-4.1,3l-3.1-7.3c0.3-0.2,0.7-0.4,1.1-0.5
			c1.7-0.5,4.1,0.4,5.5-0.5c1.3-0.8,1.2-2.9,2-4.3L57.8,177.6z"/>
	</g>
</g>
<g>
	<path class="st43" d="M149.7,136.1v-3h0.4v3H149.7z M150,136.1v-0.4h0.6c0.2,0,0.3-0.1,0.4-0.2c0.1-0.1,0.2-0.3,0.2-0.5v-0.9
		c0-0.2-0.1-0.4-0.2-0.5c-0.1-0.1-0.3-0.2-0.4-0.2H150v-0.4h0.6c0.3,0,0.6,0.1,0.7,0.3c0.2,0.2,0.3,0.4,0.3,0.8v0.8
		c0,0.2,0,0.4-0.1,0.6c-0.1,0.2-0.2,0.3-0.3,0.4c-0.1,0.1-0.3,0.1-0.5,0.1H150z"/>
	<path class="st43" d="M152.5,133.1v3h-0.4v-3H152.5z"/>
	<path class="st43" d="M154,134.5h0.9v0.5c0,0.2,0,0.4-0.1,0.6c-0.1,0.2-0.2,0.3-0.3,0.4c-0.1,0.1-0.3,0.1-0.5,0.1
		c-0.2,0-0.3,0-0.5-0.1c-0.1-0.1-0.2-0.2-0.3-0.4c-0.1-0.2-0.1-0.3-0.1-0.5v-0.9c0-0.2,0-0.4,0.1-0.6c0.1-0.2,0.2-0.3,0.3-0.4
		c0.1-0.1,0.3-0.1,0.5-0.1c0.2,0,0.3,0,0.4,0.1c0.1,0.1,0.2,0.2,0.3,0.3s0.1,0.3,0.2,0.5h-0.4c0-0.2-0.1-0.3-0.2-0.4
		c-0.1-0.1-0.2-0.1-0.3-0.1c-0.2,0-0.3,0.1-0.4,0.2c-0.1,0.1-0.1,0.3-0.1,0.5v0.9c0,0.2,0.1,0.3,0.2,0.5c0.1,0.1,0.2,0.2,0.4,0.2
		c0.2,0,0.3-0.1,0.4-0.2c0.1-0.1,0.1-0.3,0.1-0.5v-0.1H154V134.5z"/>
	<path class="st43" d="M155.8,133.1v3h-0.4v-3H155.8z"/>
	<path class="st43" d="M156.3,133.5v-0.4h1.8v0.4H156.3z M157,136.1v-2.7h0.4v2.7H157z"/>
	<path class="st43" d="M158.1,136.1l1-3h0.3l1,3h-0.4l-0.7-2.4l-0.7,2.4H158.1z M158.5,135.5v-0.4h1.4v0.4H158.5z"/>
	<path class="st43" d="M160.7,136.1v-3h0.4v3H160.7z M160.9,136.1v-0.4h1.5v0.4H160.9z"/>
	<path class="st43" d="M164.7,136.1c-0.2,0-0.3,0-0.5-0.1c-0.1-0.1-0.2-0.2-0.3-0.4c-0.1-0.2-0.1-0.4-0.1-0.6v-0.8
		c0-0.2,0-0.4,0.1-0.6c0.1-0.2,0.2-0.3,0.3-0.4c0.1-0.1,0.3-0.1,0.5-0.1c0.2,0,0.3,0,0.4,0.1c0.1,0.1,0.2,0.2,0.3,0.3
		c0.1,0.1,0.1,0.3,0.2,0.5h-0.4c0-0.1-0.1-0.2-0.1-0.2c-0.1-0.1-0.1-0.1-0.2-0.2c-0.1,0-0.1-0.1-0.2-0.1c-0.2,0-0.3,0.1-0.4,0.2
		c-0.1,0.1-0.1,0.3-0.1,0.5v0.8c0,0.2,0,0.4,0.1,0.5c0.1,0.1,0.2,0.2,0.4,0.2c0.1,0,0.2,0,0.3-0.1c0.1-0.1,0.2-0.2,0.2-0.4h0.4
		c0,0.2-0.1,0.3-0.2,0.5c-0.1,0.1-0.2,0.2-0.3,0.3C164.9,136.1,164.8,136.1,164.7,136.1z"/>
	<path class="st43" d="M166,136.1v-3h0.4v3H166z M166.2,134.9v-0.4h0.9c0.1,0,0.2,0,0.3-0.1c0.1-0.1,0.1-0.2,0.1-0.3
		c0-0.1,0-0.2-0.1-0.3c-0.1-0.1-0.2-0.1-0.3-0.1h-0.9v-0.4h0.9c0.2,0,0.3,0,0.4,0.1c0.1,0.1,0.2,0.2,0.3,0.3
		c0.1,0.1,0.1,0.3,0.1,0.5c0,0.2,0,0.3-0.1,0.4c-0.1,0.1-0.2,0.2-0.3,0.3c-0.1,0.1-0.2,0.1-0.4,0.1H166.2z M167.5,136.1l-0.6-1.3
		l0.4-0.1l0.7,1.4H167.5z"/>
	<path class="st43" d="M168.4,136.1v-3h0.4v3H168.4z M168.6,133.5v-0.4h1.5v0.4H168.6z M168.6,134.8v-0.4h1.3v0.4H168.6z
		 M168.6,136.1v-0.4h1.5v0.4H168.6z"/>
	<path class="st43" d="M170.6,136.1v-3h0.4v3H170.6z M170.9,136.1v-0.4h0.6c0.2,0,0.3-0.1,0.4-0.2c0.1-0.1,0.2-0.3,0.2-0.5v-0.9
		c0-0.2-0.1-0.4-0.2-0.5c-0.1-0.1-0.3-0.2-0.4-0.2h-0.6v-0.4h0.6c0.3,0,0.6,0.1,0.7,0.3c0.2,0.2,0.3,0.4,0.3,0.8v0.8
		c0,0.2,0,0.4-0.1,0.6c-0.1,0.2-0.2,0.3-0.3,0.4c-0.1,0.1-0.3,0.1-0.5,0.1H170.9z"/>
	<path class="st43" d="M173,136.1v-3h0.4v3H173z M173.2,133.5v-0.4h1.5v0.4H173.2z M173.2,134.8v-0.4h1.3v0.4H173.2z M173.2,136.1
		v-0.4h1.5v0.4H173.2z"/>
	<path class="st43" d="M175.2,136.1v-3h0.3l1.3,2.3l0,0.1v-2.3h0.4v3h-0.3l-1.3-2.3l0-0.1v2.3H175.2z"/>
	<path class="st43" d="M177.6,133.5v-0.4h1.8v0.4H177.6z M178.3,136.1v-2.7h0.4v2.7H178.3z"/>
	<path class="st43" d="M180.1,133.1v3h-0.4v-3H180.1z"/>
	<path class="st43" d="M180.5,136.1l1-3h0.3l1,3h-0.4l-0.7-2.4l-0.7,2.4H180.5z M181,135.5v-0.4h1.4v0.4H181z"/>
	<path class="st43" d="M183.1,136.1v-3h0.4v3H183.1z M183.3,136.1v-0.4h1.5v0.4H183.3z"/>
	<path class="st43" d="M186,136.1c-0.1,0-0.2,0-0.4,0c-0.1,0-0.2-0.1-0.3-0.1c-0.1-0.1-0.2-0.1-0.3-0.2l0.2-0.3
		c0.1,0.1,0.2,0.2,0.3,0.2c0.1,0,0.2,0.1,0.4,0.1c0.2,0,0.3,0,0.4-0.1c0.1-0.1,0.2-0.2,0.2-0.3v0c0-0.1,0-0.2-0.1-0.3
		c-0.1-0.1-0.1-0.1-0.2-0.1c-0.1,0-0.2-0.1-0.3-0.1c-0.1,0-0.2,0-0.3-0.1c-0.1,0-0.2-0.1-0.3-0.1c-0.1-0.1-0.2-0.1-0.2-0.2
		c-0.1-0.1-0.1-0.2-0.1-0.4v0c0-0.3,0.1-0.5,0.2-0.6c0.2-0.2,0.4-0.2,0.7-0.2c0.1,0,0.3,0,0.4,0.1c0.1,0.1,0.3,0.1,0.4,0.2l-0.2,0.3
		c-0.1-0.1-0.2-0.1-0.3-0.2c-0.1,0-0.2-0.1-0.3-0.1c-0.2,0-0.3,0-0.4,0.1c-0.1,0.1-0.1,0.2-0.1,0.3v0c0,0.1,0,0.2,0.1,0.3
		c0.1,0.1,0.1,0.1,0.2,0.1c0.1,0,0.2,0.1,0.3,0.1c0.1,0,0.2,0,0.3,0.1c0.1,0,0.2,0.1,0.3,0.1c0.1,0.1,0.1,0.1,0.2,0.2
		c0,0.1,0.1,0.2,0.1,0.4v0c0,0.3-0.1,0.5-0.3,0.6C186.5,136.1,186.3,136.1,186,136.1z"/>
	<path class="st43" d="M188.4,136.1v-3h0.4v3H188.4z M188.6,133.5v-0.4h1.5v0.4H188.6z M188.6,134.8v-0.4h1.3v0.4H188.6z
		 M188.6,136.1v-0.4h1.5v0.4H188.6z"/>
	<path class="st43" d="M190.6,136.1v-3h0.4v3H190.6z M190.8,136.1v-0.4h1.5v0.4H190.8z"/>
	<path class="st43" d="M192.7,136.1v-3h0.4v3H192.7z M192.9,133.5v-0.4h1.5v0.4H192.9z M192.9,134.8v-0.4h1.3v0.4H192.9z
		 M192.9,136.1v-0.4h1.5v0.4H192.9z"/>
	<path class="st43" d="M195.5,136.1l-0.9-3h0.4l0.6,2.3l0.6-2.3h0.4l-0.9,3H195.5z"/>
	<path class="st43" d="M196.7,136.1l1-3h0.3l1,3h-0.4l-0.7-2.4l-0.7,2.4H196.7z M197.1,135.5v-0.4h1.4v0.4H197.1z"/>
	<path class="st43" d="M198.9,133.5v-0.4h1.8v0.4H198.9z M199.6,136.1v-2.7h0.4v2.7H199.6z"/>
	<path class="st43" d="M201.1,136.1v-3h0.4v3H201.1z M201.3,133.5v-0.4h1.5v0.4H201.3z M201.3,134.8v-0.4h1.3v0.4H201.3z
		 M201.3,136.1v-0.4h1.5v0.4H201.3z"/>
	<path class="st43" d="M203.3,136.1v-3h0.4v3H203.3z M203.6,136.1v-0.4h0.6c0.2,0,0.3-0.1,0.4-0.2c0.1-0.1,0.2-0.3,0.2-0.5v-0.9
		c0-0.2-0.1-0.4-0.2-0.5c-0.1-0.1-0.3-0.2-0.4-0.2h-0.6v-0.4h0.6c0.3,0,0.6,0.1,0.7,0.3c0.2,0.2,0.3,0.4,0.3,0.8v0.8
		c0,0.2,0,0.4-0.1,0.6c-0.1,0.2-0.2,0.3-0.3,0.4c-0.1,0.1-0.3,0.1-0.5,0.1H203.6z"/>
</g>
<g>
	<linearGradient id="XMLID_2_" gradientUnits="userSpaceOnUse" x1="137.8309" y1="112.1671" x2="148.9787" y2="106.8588">
		<stop  offset="0.1828" style="stop-color:#FF46C8"/>
		<stop  offset="1" style="stop-color:#30DFD5"/>
	</linearGradient>
	<path id="XMLID_14_" class="st44" d="M143.5,113c-2,0-3.7-1.6-3.7-3.5c0-2,1.6-3.5,3.7-3.5s3.7,1.6,3.7,3.5c0,0.1,0,0.2,0,0.2h2.5
		c0-0.1,0-0.2,0-0.2c0-3.3-2.8-5.9-6.2-5.9s-6.2,2.6-6.2,5.9c0,3.3,2.8,5.9,6.2,5.9c2.5,0,4.7-1.5,5.7-3.6h-2.9
		C145.6,112.5,144.6,113,143.5,113z"/>
	<linearGradient id="XMLID_3_" gradientUnits="userSpaceOnUse" x1="139.738" y1="104.3801" x2="144.8622" y2="117.6243">
		<stop  offset="9.329830e-02" style="stop-color:#FF46C8"/>
		<stop  offset="0.1927" style="stop-color:#F94AC8"/>
		<stop  offset="0.3206" style="stop-color:#E956C9"/>
		<stop  offset="0.4641" style="stop-color:#CF6ACB"/>
		<stop  offset="0.619" style="stop-color:#AA85CD"/>
		<stop  offset="0.7831" style="stop-color:#7BA8D0"/>
		<stop  offset="0.9524" style="stop-color:#41D2D4"/>
		<stop  offset="1" style="stop-color:#30DFD5"/>
	</linearGradient>
	<path id="XMLID_13_" class="st45" d="M137.9,108.9c0-1.5,0.6-2.9,1.6-4c-1.4,1.1-2.2,2.7-2.2,4.6c0,3.3,2.8,5.9,6.2,5.9
		c1.8,0,3.4-0.7,4.6-1.9c-1.1,0.9-2.4,1.4-3.9,1.4C140.7,114.8,137.9,112.2,137.9,108.9z"/>
	<linearGradient id="XMLID_4_" gradientUnits="userSpaceOnUse" x1="143.4905" y1="107.8239" x2="149.6467" y2="107.8239">
		<stop  offset="9.329830e-02" style="stop-color:#FF46C8"/>
		<stop  offset="1" style="stop-color:#30DFD5"/>
	</linearGradient>
	<path id="XMLID_10_" class="st46" d="M143.5,105.9c5.5,0,6.2,3.8,6.2,3.8h-2.5C147.2,109.7,147.5,106.3,143.5,105.9z"/>
	<path id="XMLID_7_" class="st47" d="M137.3,109.5c0,0.2,0,0.5,0,0.7h2.5c0-0.2-0.1-0.5-0.1-0.7c0-0.4,0.1-0.8,0.2-1.2h-2.6
		C137.4,108.7,137.3,109.1,137.3,109.5z"/>
	<path id="XMLID_6_" class="st48" d="M135.2,109.7l1.3-2.1h10.2c0.7,1.1,0.6,2.1,0.6,2.1H135.2"/>
	<linearGradient id="XMLID_8_" gradientUnits="userSpaceOnUse" x1="133.3253" y1="108.7071" x2="142.8622" y2="108.6464">
		<stop  offset="0.2965" style="stop-color:#FF46C8"/>
		<stop  offset="0.8642" style="stop-color:#FF46C8;stop-opacity:0"/>
	</linearGradient>
	<polyline id="XMLID_5_" class="st49" points="135.2,109.7 136.5,107.6 145.9,109.7 135.2,109.7 	"/>
</g>
<g>
	<g>
		<defs>
			<path id="SVGID_22_" d="M168.9,112.6c0,0,4,0.3,5.1-8.8h-1.9h0h0c-1,0-1.8,0.7-1.9,1.5c0,2,0,4.1,0,6.1c0,0.1,0,0.3-0.1,0.4
				C170,112.3,169.5,112.6,168.9,112.6"/>
		</defs>
		<clipPath id="SVGID_38_">
			<use xlink:href="#SVGID_22_"  style="overflow:visible;"/>
		</clipPath>
		<linearGradient id="SVGID_39_" gradientUnits="userSpaceOnUse" x1="172.4676" y1="110.1362" x2="168.0893" y2="101.8969">
			<stop  offset="0" style="stop-color:#003780"/>
			<stop  offset="1" style="stop-color:#29C4FF"/>
		</linearGradient>
		<rect x="168.9" y="103.8" class="st50" width="5.1" height="9.1"/>
	</g>
	<g>
		<defs>
			<path id="SVGID_25_" d="M174.1,103.8c-1.2,9.1-5.1,8.8-5.1,8.8c-0.6,0-1.1-0.3-1.2-0.8c-0.7-2-1.2-3.5-3.9-4.2v4.5v0.6
				c0.2,1.5,1.5,2.6,3.2,2.6c0,0,0.1,0,0.1,0l0,0h3.6l0,0c0.1,0,0.1,0,0.2,0c0.2,0,0.4,0,0.5,0c1.5-0.2,2.6-1.4,2.7-2.8v-0.2v-6.7v0
				v0V103.8z"/>
		</defs>
		<clipPath id="SVGID_40_">
			<use xlink:href="#SVGID_25_"  style="overflow:visible;"/>
		</clipPath>
		<linearGradient id="SVGID_41_" gradientUnits="userSpaceOnUse" x1="166.0034" y1="112.822" x2="172.0575" y2="105.9807">
			<stop  offset="0" style="stop-color:#00478F"/>
			<stop  offset="1" style="stop-color:#27CABF"/>
		</linearGradient>
		<rect x="163.8" y="103.8" class="st51" width="10.3" height="11.5"/>
	</g>
	<g>
		<defs>
			<path id="SVGID_28_" d="M171.4,115.2c-3.3-0.1-3.7-3.5-3.7-3.5c0,0,0-0.1,0-0.1c0,0,0,0,0-0.1c0,0,0,0,0-0.1c0-1.9,0-3.9,0-5.8
				l0-0.2c0-0.9-0.9-1.7-1.9-1.7h0h-1.9v1.7v0.2v6.4v0.6c0.2,1.5,1.5,2.6,3.2,2.6c0,0,0.1,0,0.1,0l0,0h3.6l0,0c0.1,0,0.1,0,0.2,0
				C171,115.2,171.2,115.2,171.4,115.2"/>
		</defs>
		<clipPath id="SVGID_42_">
			<use xlink:href="#SVGID_28_"  style="overflow:visible;"/>
		</clipPath>
		<linearGradient id="SVGID_43_" gradientUnits="userSpaceOnUse" x1="168.3399" y1="114.924" x2="166.7671" y2="103.6107">
			<stop  offset="0" style="stop-color:#07AA9F"/>
			<stop  offset="1" style="stop-color:#AFF022"/>
		</linearGradient>
		<rect x="163.8" y="103.8" class="st52" width="7.6" height="11.5"/>
	</g>
	<defs>
		<filter id="Adobe_OpacityMaskFilter" filterUnits="userSpaceOnUse" x="163.8" y="103.8" width="7.6" height="11.5">
			<feColorMatrix  type="matrix" values="1 0 0 0 0  0 1 0 0 0  0 0 1 0 0  0 0 0 1 0"/>
		</filter>
	</defs>
	<mask maskUnits="userSpaceOnUse" x="163.8" y="103.8" width="7.6" height="11.5" id="SVGID_44_">
		<g class="st53">
			
				<linearGradient id="SVGID_45_" gradientUnits="userSpaceOnUse" x1="-2650.2292" y1="280.2203" x2="-2640.5215" y2="295.231" gradientTransform="matrix(1 0 0 1 2810.0313 -182.7516)">
				<stop  offset="0" style="stop-color:#FFFFFF"/>
				<stop  offset="1" style="stop-color:#000000"/>
			</linearGradient>
			<rect x="163.8" y="103.8" class="st54" width="7.6" height="11.5"/>
		</g>
	</mask>
	<path class="st55" d="M171.4,115.2c-3.3-0.1-3.7-3.5-3.7-3.5c0,0,0-0.1,0-0.1c0,0,0,0,0-0.1c0,0,0,0,0-0.1c0-1.9,0-3.9,0-5.8l0-0.2
		c0-0.9-0.9-1.7-1.9-1.7h0h-1.9c4,0.9-1.2,11.5,7.3,11.5C171.2,115.2,171.3,115.2,171.4,115.2"/>
	<defs>
		<filter id="Adobe_OpacityMaskFilter_1_" filterUnits="userSpaceOnUse" x="171.1" y="103.8" width="2.9" height="7.7">
			<feColorMatrix  type="matrix" values="1 0 0 0 0  0 1 0 0 0  0 0 1 0 0  0 0 0 1 0"/>
		</filter>
	</defs>
	<mask maskUnits="userSpaceOnUse" x="171.1" y="103.8" width="2.9" height="7.7" id="SVGID_46_">
		<g class="st56">
			
				<linearGradient id="SVGID_47_" gradientUnits="userSpaceOnUse" x1="-2789.8125" y1="372.6365" x2="-2793.6118" y2="380.6376" gradientTransform="matrix(1 0 0 1 2964.2571 -268.8483)">
				<stop  offset="0" style="stop-color:#FFFFFF"/>
				<stop  offset="1" style="stop-color:#000000"/>
			</linearGradient>
			<rect x="171.1" y="103.8" class="st57" width="2.9" height="7.7"/>
		</g>
	</mask>
	<path class="st58" d="M174.1,103.8c-0.6,4.4-1.8,6.6-2.9,7.7c0,0,2.4-2.1,2.9-6.6V103.8z"/>
	<defs>
		<filter id="Adobe_OpacityMaskFilter_2_" filterUnits="userSpaceOnUse" x="168.9" y="106.1" width="4.7" height="6.4">
			<feColorMatrix  type="matrix" values="1 0 0 0 0  0 1 0 0 0  0 0 1 0 0  0 0 0 1 0"/>
		</filter>
	</defs>
	<mask maskUnits="userSpaceOnUse" x="168.9" y="106.1" width="4.7" height="6.4" id="SVGID_48_">
		<g class="st59">
			
				<linearGradient id="SVGID_49_" gradientUnits="userSpaceOnUse" x1="-2743.2971" y1="349.1133" x2="-2750.9258" y2="358.8449" gradientTransform="matrix(1 0 0 1 2917.9829 -244.0633)">
				<stop  offset="0" style="stop-color:#FFFFFF"/>
				<stop  offset="1" style="stop-color:#000000"/>
			</linearGradient>
			<rect x="168.9" y="106.1" class="st60" width="4.7" height="6.4"/>
		</g>
	</mask>
	<path class="st61" d="M173.7,106.1c0,0-1.5,4-3.4,4.8c0,0.2,0,0.3,0,0.5c0,0.1,0,0.3-0.1,0.4c-0.2,0.5-0.7,0.8-1.2,0.8
		c0,0,1,0.1,2.2-1.1C172,110.6,173,109,173.7,106.1"/>
	<defs>
		<filter id="Adobe_OpacityMaskFilter_3_" filterUnits="userSpaceOnUse" x="167.7" y="111.7" width="3.7" height="3.5">
			<feColorMatrix  type="matrix" values="1 0 0 0 0  0 1 0 0 0  0 0 1 0 0  0 0 0 1 0"/>
		</filter>
	</defs>
	<mask maskUnits="userSpaceOnUse" x="167.7" y="111.7" width="3.7" height="3.5" id="SVGID_50_">
		<g class="st62">
			
				<linearGradient id="SVGID_51_" gradientUnits="userSpaceOnUse" x1="-2723.7197" y1="293.9598" x2="-2720.1052" y2="299.0573" gradientTransform="matrix(1 0 0 1 2891.1753 -183.4452)">
				<stop  offset="0" style="stop-color:#FFFFFF"/>
				<stop  offset="1" style="stop-color:#000000"/>
			</linearGradient>
			<rect x="167.7" y="111.7" class="st63" width="3.7" height="3.5"/>
		</g>
	</mask>
	<path class="st64" d="M171.4,115.2c0,0-1.8-0.7-2.2-2.6c-0.2,0-0.2,0-0.2,0c-0.6,0-1.1-0.3-1.2-0.8c0,0,0-0.1,0-0.1
		C167.7,111.7,168.1,115.1,171.4,115.2"/>
	<defs>
		<filter id="Adobe_OpacityMaskFilter_4_" filterUnits="userSpaceOnUse" x="163.8" y="103.8" width="3.9" height="7.6">
			<feColorMatrix  type="matrix" values="1 0 0 0 0  0 1 0 0 0  0 0 1 0 0  0 0 0 1 0"/>
		</filter>
	</defs>
	<mask maskUnits="userSpaceOnUse" x="163.8" y="103.8" width="3.9" height="7.6" id="SVGID_52_">
		<g class="st65">
			
				<linearGradient id="SVGID_53_" gradientUnits="userSpaceOnUse" x1="-2644.2358" y1="372.1459" x2="-2644.3518" y2="381.4821" gradientTransform="matrix(1 0 0 1 2810.0313 -271.3612)">
				<stop  offset="0" style="stop-color:#FFFFFF"/>
				<stop  offset="1" style="stop-color:#000000"/>
			</linearGradient>
			<rect x="163.8" y="103.8" class="st66" width="3.9" height="7.6"/>
		</g>
	</mask>
	<path class="st67" d="M163.8,105.9c3.5-0.3,3.8,4.9,3.8,5.5c0,0,0,0,0,0c0-1.9,0-3.9,0-5.8l0-0.2c0-0.9-0.9-1.7-1.9-1.7h0h-1.9v1.7
		v0.2V105.9z"/>
	<defs>
		<filter id="Adobe_OpacityMaskFilter_5_" filterUnits="userSpaceOnUse" x="170.2" y="103.8" width="3.8" height="4.6">
			<feColorMatrix  type="matrix" values="1 0 0 0 0  0 1 0 0 0  0 0 1 0 0  0 0 0 1 0"/>
		</filter>
	</defs>
	<mask maskUnits="userSpaceOnUse" x="170.2" y="103.8" width="3.8" height="4.6" id="SVGID_54_">
		<g class="st68">
			
				<linearGradient id="SVGID_55_" gradientUnits="userSpaceOnUse" x1="-2775.0188" y1="442.923" x2="-2772.8049" y2="450.0219" gradientTransform="matrix(1 0 0 1 2945.4624 -342.3628)">
				<stop  offset="0" style="stop-color:#FFFFFF"/>
				<stop  offset="1" style="stop-color:#000000"/>
			</linearGradient>
			<rect x="170.2" y="103.8" class="st69" width="3.8" height="4.6"/>
		</g>
	</mask>
	<path class="st70" d="M170.3,108.4c0,0,0.3-3.1,3.6-3.2c0.1-0.4,0.1-0.9,0.2-1.4h-1.9h0h0c-1,0-1.8,0.7-1.9,1.5
		C170.2,106.3,170.3,107.3,170.3,108.4"/>
</g>
<g>
	<g>
		<linearGradient id="SVGID_56_" gradientUnits="userSpaceOnUse" x1="177.3649" y1="115.2026" x2="177.3649" y2="110.9641">
			<stop  offset="0" style="stop-color:#FF1BC9"/>
			<stop  offset="0.5286" style="stop-color:#873EED"/>
			<stop  offset="1" style="stop-color:#11318D"/>
		</linearGradient>
		<path class="st71" d="M179,111h-3.3v2.4c0,1,1.1,1.9,2.5,1.9h0.1h0.6V111z"/>
		<linearGradient id="SVGID_57_" gradientUnits="userSpaceOnUse" x1="175.4823" y1="112.0795" x2="179.2412" y2="112.0795">
			<stop  offset="0" style="stop-color:#000000"/>
			<stop  offset="1" style="stop-color:#FFFFFF"/>
		</linearGradient>
		<path class="st72" d="M179,111h-3.3v2.2l0,0l0,0c0.3-1,1.7-1.6,3.1-1.3l0.1,0l0.1,0V111z"/>
		<linearGradient id="SVGID_58_" gradientUnits="userSpaceOnUse" x1="180.8667" y1="113.195" x2="180.8667" y2="103.774">
			<stop  offset="0" style="stop-color:#FF1BC9"/>
			<stop  offset="0.5286" style="stop-color:#873EED"/>
			<stop  offset="1" style="stop-color:#11318D"/>
		</linearGradient>
		<path class="st73" d="M180.9,103.8h-2.6c-1.4,0-2.5,0.8-2.5,1.9v3.1v2.6v1.9v0c0-1,1.1-1.9,2.5-1.9h0.1h2.5c2.8,0,5.1-1.7,5.1-3.8
			v0C186,105.5,183.7,103.8,180.9,103.8z M180.9,108.9H179v-2.8h1.9c1,0,1.9,0.6,1.9,1.4C182.7,108.3,181.9,108.9,180.9,108.9z"/>
	</g>
</g>
<linearGradient id="SVGID_59_" gradientUnits="userSpaceOnUse" x1="156.4505" y1="108.2896" x2="156.4505" y2="117.0173">
	<stop  offset="0" style="stop-color:#0C67FF"/>
	<stop  offset="1" style="stop-color:#40F1FE"/>
</linearGradient>
<rect x="151.2" y="108.3" class="st74" width="10.5" height="2.8"/>
</svg>
