<?xml version="1.0" encoding="UTF-8"?>
<svg id="Layer_2" data-name="Layer 2" xmlns="http://www.w3.org/2000/svg" viewBox="0 0 933.09 921.3">
  <defs>
    <style>
      .cls-1 {
        fill: #0d4427;
      }

      .cls-2 {
        fill: #fef4dc;
      }

      .cls-3 {
        fill: #0e4426;
      }

      .cls-4 {
        fill: #f9f9fa;
      }
    </style>
  </defs>
  <ellipse class="cls-2" cx="466.55" cy="460.65" rx="466.55" ry="460.65"/>
  <g>
    <path class="cls-1" d="M628.23,285.33c15.67-56.63,2.76-115.98-36.84-159.27-72.5-79.25-200.9-68.31-259.17,21.59-29.21,45.06-35.72,105.78-12.09,154.66l13.27-7.35c-16.34-38.81-15.53-82.68,2.37-120.78,41.04-87.37,152.55-113.72,228.1-52.56,48.89,39.58,66.98,104.88,47.48,164.8l16.89-1.09ZM475.49,265.45v-49.45c11.73-14.94,24.69-31.01,26.02-50.9,1.36-20.35-7.38-43.56-25.51-54.16-24.15,17.67-35.08,45.97-24.24,74.86,2.4,6.41,16.74,27.52,16.74,29.21v46.45l-7.23-22.24c-15.09-37.19-49.43-57.37-89.68-50.69.98,42.13,39.69,79.69,82.92,70.92-11.55-18.53-29.3-31.65-46.95-43.94,15.87,5.41,32.3,15.42,42.93,28.49,15.15,18.65,16.67,44.27,16.02,67.41-14.49.03-29,.15-43.45-1.01-34.38-2.78-77.78-20.11-107.88,4.03-33.67,27-8.97,67.42-22.33,100.55-4.55,11.28-11.6,18.25-10.22,31.86,1.16,11.4,11.08,2.88,14.87-2.23,12.45-16.81,5.53-48.39,9.17-68.75l1.97-12.49c1.93,9.27,3.24,18.99,4,28.47,1.3,16.31,2.72,32.19-4.51,47.43-3.1,6.54-10.04,11.22-10.53,18.46-.51,7.6,3.82,18.36,4.1,26.97.41,12.67-2.9,28.45-.97,40.94,2.11,13.71,22.4,9.68,32.01,7.97,2.97-9.58-5.62-15.61-8.58-23.4-7.67-20.17,2.1-39.84,14.5-55.4,2.89-3.63,22.77-25.23,25.22-25.27,17.71,2.01,33.53,11.22,50.25,15.68,21.61,5.76,47.67,6.91,69.84,5.06,10.13-.85,20.17-3.33,30.33-3.84,2.62,5.32,3.71,11.42,4.13,17.34,1.68,23.59-2.01,54.03,1.27,76.65,1.88,12.96,13.61,21.12,26.18,21.78,31.96-2.15,67.38,2.76,98.92-.05,31.86-2.84,50.9-31.61,34.01-60.96-15.84-27.52-50.66-24.34-76.5-31.39-7.7-2.1-3.25-7.7,1.11-10.97l63.42-24.49,9.45-29.44c-.2-2.14-26.31-2.9-29.52-2.62-12.91,1.13-57.34,22.47-64.83,33.07-7.74,10.94-8,36.17-12.62,49.43l.65,2.57c25.77,8.65,57.33,9.94,82.01,20.68,14.63,6.37,27.28,22.1,2.85,24.19-31.89,2.73-67.63-2.12-99.94-.03-6.85-.48-13.68-6.57-14.5-13.47-1.91-15.89-.95-51.67,1.14-67.83.27-2.05,1.11-7.29,2.38-8.61.89-.94,14.12-5.56,17.5-7.48,9.96-5.64,19.58-15.63,25.77-25.18,4.5-6.94,11.65-24.97,19.21-27.74,5.45-1.99,8.9,2.4,14.44,2.53,4.97.12,9.7-2.39,14.94-2.1,8.97.51,15.1,7.33,26.04,6.03,6.7-.79,16.04-10.3,14.04-17.02-5.07-10.57-21.44-24.55-23.32-35.68-.8-4.71.51-9.61-.71-14.28-1.18-4.53-5.84-6.46-7.56-10.46-.05-3.71,6.52-2.21,9.3-2.74,10.11-1.92,10.03-9.37,11.72-17.74-2.02-1.47-20.07,4.44-23.46,4.52-2.85.07-6.98-2.09-10.11-2.42-16.5-1.75-28.8,5.12-44.41,4.45-2.83-1.96.61-12.51-.07-15.89-1.4-4.17-11.58,1.35-13.79,2.9-10.52,7.42-10.47,16.96-1.06,25.4-12.91-.54-25.95-5.75-38.59-6.85-18.89-1.66-36.8,5.51-55.31,7.86-.75-18.22.4-36.74,7.81-53.62,9.28-21.15,32.62-37.19,53.6-45.3l-17.39,11.59c-8.17,6.8-15.91,14.05-22.47,22.48-1.1,1.41-10.32,14.21-9.57,14.89,40.41,6.51,80.97-30.11,82.48-69.99-40.33-12.61-79.06,15.94-91.22,53.76l-6.25,21.23ZM398.32,447.51c-3.51-3.39-27.67-7.11-32.99-6.01s-19.15,13.92-19.71,19.34c-.33,3.22,4.34,11.3,5.74,15.15,4.57,12.55,7.57,26.47,20.55,33.4,8.22,4.38,25.28,4.42,20.7,17.35-4.84,13.66-41.93,28.04-55.61,29.29-39.58,3.63-83.93-4.25-67.34-55.35,1.07-3.3,7.03-14.4,7-15.98-.04-2.03-2.34-3.87-4.27-3.36-6.19,1.63-18.09,24.51-20.14,30.9-21.68,67.7,43.75,82.75,95.14,67.17,27.81-8.43,67.65-44.3,57.68-76.22-6.45-20.64-33.03-6.57-32.22-28.19.47-12.39,9.81-11.39,18.04-15.92,3.11-1.71,11.38-7.74,7.42-11.57ZM479.32,483.06c.79-.49,7.09-15.42,7.48-17.01.92-3.84,1.08-4.86-2.41-7.21-1.5-1.01-12.91-5.91-14.67-6.34-2.8-.69-5.39.14-7.99.98-.09,5.26-8.71,17.33-6.05,21.6.84,1.34,20.93,9.68,23.65,7.98ZM476.13,487.3c-2.39.4-15.74,24.28-15.71,27.43,0,.88.03,1.72.58,2.47,18.44,13.4,29.73,33.4,14.32,54.28-8.98,12.17-30.32,21.44-45.27,21.72-6.73.13-13.88-3.1-20-3.15-4.34-.03-5.89,1.68-3.54,5.63.95,1.6,11.46,9.73,13.72,11.25,23.55,15.77,40.34,13.49,58.77-7.79,28.15-32.51,31.94-82.81-2.87-111.82ZM340.28,596.33l-15.28,13.71c-2.55.45-11.45-13.01-15.7-12.76-1.07.21-14.97,14.08-15.68,15.28-.85,1.43-1.31,2.05-.8,3.83.28.99,13.51,14.22,14.56,14.53,5.57,1.66,12.31-9.21,15.87-12.74,6.14.93,12.36,14.51,18.66,12.77.99-.27,14.08-13.14,14.76-14.28,1.43-2.45,1.43-3.66,0-6.11-1.23-2.11-14.2-14.42-16.38-14.22Z"/>
    <path class="cls-1" d="M475.49,265.45l6.25-21.23c12.16-37.82,50.89-66.38,91.22-53.76-1.51,39.88-42.07,76.5-82.48,69.99-.74-.69,8.47-13.48,9.57-14.89,6.56-8.43,14.3-15.68,22.47-22.48l17.39-11.59c-20.99,8.11-44.32,24.15-53.6,45.3-7.41,16.88-8.56,35.39-7.81,53.62,18.5-2.35,36.42-9.52,55.31-7.86,12.64,1.11,25.67,6.31,38.59,6.85-9.4-8.44-9.46-17.98,1.06-25.4,2.21-1.56,12.39-7.07,13.79-2.9.67,3.38-2.76,13.93.07,15.89,15.61.66,27.91-6.2,44.41-4.45,3.13.33,7.26,2.49,10.11,2.42,3.4-.08,21.45-5.99,23.46-4.52-1.69,8.37-1.61,15.82-11.72,17.74-2.78.53-9.35-.97-9.3,2.74,1.73,3.99,6.38,5.93,7.56,10.46,1.22,4.67-.09,9.57.71,14.28,1.88,11.13,18.25,25.11,23.32,35.68,2,6.73-7.35,16.23-14.04,17.02-10.94,1.3-17.07-5.52-26.04-6.03-5.25-.3-9.97,2.22-14.94,2.1-5.55-.13-9-4.53-14.44-2.53-7.57,2.77-14.72,20.79-19.21,27.74-6.19,9.55-15.81,19.54-25.77,25.18-3.38,1.92-16.6,6.54-17.5,7.48-1.26,1.32-2.11,6.56-2.38,8.61-2.1,16.17-3.05,51.94-1.14,67.83.83,6.89,7.65,12.98,14.5,13.47,32.31-2.09,68.04,2.77,99.94.03,24.43-2.09,11.78-17.82-2.85-24.19-24.68-10.74-56.24-12.03-82.01-20.68l-.65-2.57c4.62-13.26,4.88-38.49,12.62-49.43,7.5-10.59,51.93-31.94,64.83-33.07,3.21-.28,29.32.48,29.52,2.62l-9.45,29.44-63.42,24.49c-4.36,3.26-8.81,8.87-1.11,10.97,25.84,7.05,60.66,3.87,76.5,31.39,16.89,29.34-2.15,58.12-34.01,60.96-31.54,2.81-66.96-2.09-98.92.05-12.57-.66-24.3-8.82-26.18-21.78-3.28-22.63.41-53.06-1.27-76.65-.42-5.92-1.51-12.03-4.13-17.34-10.16.5-20.2,2.99-30.33,3.84-22.17,1.85-48.23.7-69.84-5.06-16.72-4.45-32.54-13.67-50.25-15.68-2.44.04-22.33,21.64-25.22,25.27-12.4,15.57-22.16,35.24-14.5,55.4,2.96,7.8,11.55,13.82,8.58,23.4-9.62,1.72-29.9,5.74-32.01-7.97-1.92-12.49,1.38-28.27.97-40.94-.28-8.61-4.61-19.37-4.1-26.97s7.43-11.92,10.53-18.46c7.22-15.24,5.81-31.11,4.51-47.43-.76-9.49-2.07-19.2-4-28.47l-1.97,12.49c-3.64,20.36,3.27,51.94-9.17,68.75-3.79,5.11-13.7,13.63-14.87,2.23-1.39-13.61,5.67-20.58,10.22-31.86,13.36-33.13-11.35-73.55,22.33-100.55,30.1-24.14,73.49-6.8,107.88-4.03,14.45,1.17,28.96,1.05,43.45,1.01.65-23.14-.87-48.76-16.02-67.41-10.62-13.07-27.05-23.08-42.93-28.49,17.65,12.28,35.4,25.41,46.95,43.94-43.23,8.77-81.94-28.79-82.92-70.92,40.25-6.68,74.59,13.49,89.68,50.69l7.23,22.24v-46.45c0-1.69-14.34-22.8-16.74-29.21-10.83-28.89.09-57.19,24.24-74.86,18.13,10.6,26.87,33.81,25.51,54.16-1.33,19.89-14.29,35.97-26.02,50.9v49.45ZM473.48,213.5c5.19-20.58,4.33-42.3.51-62.94-2.57,17.72-3.68,37.53-2.54,55.49.11,1.73.38,6.54,2.03,7.45Z"/>
    <path class="cls-1" d="M628.23,285.33l-16.89,1.09c19.5-59.92,1.41-125.22-47.48-164.8-75.55-61.16-187.05-34.81-228.1,52.56-17.9,38.1-18.7,81.97-2.37,120.78l-13.27,7.35c-23.63-48.88-17.12-109.6,12.09-154.66,58.28-89.9,186.68-100.84,259.17-21.59,39.6,43.29,52.51,102.63,36.84,159.27Z"/>
    <path class="cls-1" d="M398.32,447.51c3.96,3.83-4.32,9.85-7.42,11.57-8.22,4.54-17.57,3.53-18.04,15.92-.81,21.62,25.77,7.55,32.22,28.19,9.97,31.92-29.86,67.79-57.68,76.22-51.4,15.58-116.82.53-95.14-67.17,2.04-6.38,13.95-29.27,20.14-30.9,1.93-.51,4.23,1.33,4.27,3.36.03,1.57-5.93,12.67-7,15.98-16.59,51.1,27.76,58.98,67.34,55.35,13.69-1.26,50.78-15.64,55.61-29.29,4.58-12.93-12.48-12.97-20.7-17.35-12.98-6.92-15.98-20.85-20.55-33.4-1.4-3.84-6.08-11.92-5.74-15.15.56-5.42,14.34-18.23,19.71-19.34s29.48,2.62,32.99,6.01Z"/>
    <path class="cls-1" d="M476.13,487.3c34.81,29.01,31.02,79.31,2.87,111.82-18.42,21.28-35.21,23.56-58.77,7.79-2.26-1.51-12.77-9.65-13.72-11.25-2.35-3.95-.81-5.67,3.54-5.63,6.12.05,13.27,3.28,20,3.15,14.95-.28,36.29-9.56,45.27-21.72,15.41-20.88,4.12-40.87-14.32-54.28-.55-.74-.57-1.58-.58-2.47-.03-3.15,13.32-27.02,15.71-27.43Z"/>
    <path class="cls-1" d="M340.28,596.33c2.17-.2,15.14,12.12,16.38,14.22,1.43,2.45,1.43,3.66,0,6.11-.67,1.15-13.77,14.01-14.76,14.28-6.29,1.74-12.52-11.84-18.66-12.77-3.55,3.53-10.3,14.4-15.87,12.74-1.04-.31-14.28-13.54-14.56-14.53-.5-1.78-.05-2.4.8-3.83.72-1.2,14.61-15.07,15.68-15.28,4.25-.24,13.16,13.21,15.7,12.76l15.28-13.71Z"/>
    <path class="cls-1" d="M479.32,483.06c-2.72,1.7-22.81-6.64-23.65-7.98-2.66-4.27,5.96-16.34,6.05-21.6,2.6-.85,5.19-1.67,7.99-.98,1.76.43,13.18,5.33,14.67,6.34,3.49,2.36,3.34,3.37,2.41,7.21-.38,1.59-6.69,16.51-7.48,17.01Z"/>
    <path class="cls-4" d="M473.48,213.5c-1.65-.91-1.92-5.71-2.03-7.45-1.14-17.96-.04-37.78,2.54-55.49,3.82,20.64,4.68,42.36-.51,62.94Z"/>
  </g>
  <g>
    <path class="cls-3" d="M158.6,707.66v-44.58h7.17v19.8l14.47-19.8h9.63l-13.36,17.37,14.09,27.22h-9.27l-9.75-20.92-5.81,7.45v13.47h-7.17Z"/>
    <path class="cls-3" d="M226.3,707.66h-7.79l-3.1-10.13h-14.18l-2.93,10.13h-7.6l13.82-44.58h7.58l14.21,44.58ZM213.11,690.02l-4.89-16.54-4.79,16.54h9.68Z"/>
    <path class="cls-3" d="M227.02,707.66v-8.12l18.64-28.92h-16.53v-7.54h25.97v7l-19.44,30.08h20.19v7.51h-28.83Z"/>
    <path class="cls-3" d="M260.16,707.66v-44.58h7.17v44.58h-7.17Z"/>
    <path class="cls-3" d="M287.95,707.66v-44.58h15.08c3.79,0,6.55.4,8.27,1.2,1.72.8,3.09,2.23,4.13,4.27s1.55,4.39,1.55,7.02c0,3.35-.78,6.11-2.35,8.29-1.57,2.18-3.91,3.55-7.02,4.12,1.55,1.14,2.83,2.38,3.84,3.74,1.01,1.36,2.37,3.77,4.08,7.24l4.33,8.7h-8.57l-5.18-9.7c-1.84-3.47-3.1-5.65-3.78-6.55-.68-.9-1.4-1.52-2.15-1.86-.76-.33-1.96-.5-3.61-.5h-1.45v18.61h-7.17ZM295.12,681.94h5.3c3.44,0,5.58-.18,6.44-.55s1.52-.99,2.01-1.89c.48-.89.73-2.01.73-3.34,0-1.5-.32-2.71-.96-3.63-.64-.92-1.54-1.5-2.7-1.75-.58-.1-2.32-.15-5.23-.15h-5.59v11.31Z"/>
    <path class="cls-3" d="M322.27,685.65c0-4.54.54-8.35,1.62-11.43.81-2.27,1.91-4.31,3.3-6.11,1.4-1.8,2.92-3.14,4.59-4.01,2.21-1.18,4.76-1.76,7.65-1.76,5.23,0,9.41,2.04,12.55,6.11s4.71,9.74,4.71,17-1.56,12.83-4.67,16.89-7.28,6.1-12.49,6.1-9.47-2.02-12.59-6.07c-3.12-4.04-4.67-9.62-4.67-16.71ZM329.66,685.34c0,5.05.93,8.88,2.78,11.48,1.86,2.61,4.21,3.91,7.07,3.91s5.2-1.29,7.03-3.88c1.83-2.58,2.75-6.46,2.75-11.63s-.89-8.92-2.67-11.43-4.15-3.77-7.1-3.77-5.33,1.27-7.14,3.82c-1.81,2.54-2.71,6.38-2.71,11.51Z"/>
    <path class="cls-3" d="M362.31,663.08h14.18c2.81,0,4.9.15,6.28.44,1.38.29,2.61.91,3.7,1.84s2,2.17,2.72,3.72c.73,1.55,1.09,3.29,1.09,5.22,0,2.09-.45,4-1.34,5.75-.9,1.74-2.11,3.05-3.64,3.92,2.16.79,3.82,2.14,4.99,4.04,1.16,1.91,1.74,4.15,1.74,6.72,0,2.03-.38,4-1.12,5.92-.75,1.92-1.78,3.45-3.07,4.59-1.3,1.15-2.9,1.85-4.8,2.11-1.19.16-4.08.26-8.64.3h-12.08v-44.58ZM369.47,670.5v10.31h4.7c2.79,0,4.53-.05,5.2-.15,1.23-.18,2.19-.71,2.89-1.6s1.05-2.04,1.05-3.48-.3-2.5-.91-3.36c-.61-.86-1.5-1.38-2.7-1.57-.71-.1-2.75-.15-6.12-.15h-4.11ZM369.47,688.23v11.92h6.63c2.58,0,4.22-.09,4.91-.27,1.06-.24,1.93-.84,2.6-1.78s1-2.21,1-3.79c0-1.34-.26-2.47-.77-3.41-.52-.93-1.26-1.61-2.24-2.04-.98-.43-3.09-.64-6.35-.64h-5.79Z"/>
    <path class="cls-3" d="M397.87,707.66v-44.58h7.17v44.58h-7.17Z"/>
    <path class="cls-3" d="M411.93,707.66v-44.58h6.97l14.52,29.77v-29.77h6.66v44.58h-7.19l-14.3-29.07v29.07h-6.66Z"/>
    <path class="cls-3" d="M492.82,702.22l-4.12,6.6c-2.02-1.24-3.95-2.94-5.81-5.11-1.44,1.62-2.96,2.82-4.57,3.59-1.61.77-3.53,1.16-5.76,1.16-4.42,0-7.75-1.56-9.97-4.68-1.73-2.41-2.59-5.19-2.59-8.33,0-2.86.68-5.43,2.03-7.71s3.38-4.26,6.08-5.95c-1.21-1.8-2.12-3.52-2.74-5.16-.61-1.63-.92-3.18-.92-4.64,0-2.7.86-4.98,2.58-6.86,1.72-1.88,4.17-2.81,7.35-2.81s5.46.98,7.19,2.95c1.73,1.97,2.59,4.37,2.59,7.21,0,1.8-.43,3.52-1.28,5.14-.86,1.62-2.58,3.46-5.18,5.5l4.94,8.18c.58-1.3,1.08-2.99,1.5-5.08l6.15,1.76c-.61,2.74-1.15,4.74-1.6,6.01-.45,1.27-.94,2.33-1.45,3.18.76.89,1.74,1.87,2.94,2.93,1.2,1.06,2.08,1.77,2.65,2.11ZM471.64,687.26c-1.57.99-2.74,2.19-3.51,3.59-.77,1.4-1.16,2.83-1.16,4.29,0,1.84.48,3.35,1.44,4.52.96,1.17,2.25,1.75,3.86,1.75,1.07,0,2.09-.26,3.07-.79.98-.53,2.06-1.4,3.22-2.62l-6.92-10.74ZM474.31,677.98l1.84-1.76c1.36-1.32,2.03-2.62,2.03-3.92,0-1.09-.33-2.03-.98-2.8-.65-.77-1.54-1.16-2.65-1.16s-1.93.34-2.54,1.02c-.61.68-.92,1.46-.92,2.36,0,1.05.52,2.33,1.55,3.83l1.67,2.43Z"/>
    <path class="cls-3" d="M511.03,663.08h14.18c2.81,0,4.9.15,6.28.44,1.38.29,2.61.91,3.7,1.84s2,2.17,2.72,3.72c.73,1.55,1.09,3.29,1.09,5.22,0,2.09-.45,4-1.34,5.75-.9,1.74-2.11,3.05-3.64,3.92,2.16.79,3.82,2.14,4.99,4.04,1.16,1.91,1.74,4.15,1.74,6.72,0,2.03-.38,4-1.12,5.92-.75,1.92-1.78,3.45-3.07,4.59-1.3,1.15-2.9,1.85-4.8,2.11-1.19.16-4.08.26-8.64.3h-12.08v-44.58ZM518.19,670.5v10.31h4.7c2.79,0,4.53-.05,5.2-.15,1.23-.18,2.19-.71,2.89-1.6s1.05-2.04,1.05-3.48-.3-2.5-.91-3.36c-.61-.86-1.5-1.38-2.7-1.57-.71-.1-2.75-.15-6.12-.15h-4.11ZM518.19,688.23v11.92h6.63c2.58,0,4.22-.09,4.91-.27,1.06-.24,1.93-.84,2.6-1.78s1-2.21,1-3.79c0-1.34-.26-2.47-.77-3.41-.52-.93-1.26-1.61-2.24-2.04-.98-.43-3.09-.64-6.35-.64h-5.79Z"/>
    <path class="cls-3" d="M546.82,707.66v-44.58h15.08c3.79,0,6.55.4,8.27,1.2,1.72.8,3.09,2.23,4.13,4.27s1.55,4.39,1.55,7.02c0,3.35-.78,6.11-2.35,8.29-1.57,2.18-3.91,3.55-7.02,4.12,1.55,1.14,2.83,2.38,3.84,3.74,1.01,1.36,2.37,3.77,4.08,7.24l4.33,8.7h-8.57l-5.18-9.7c-1.84-3.47-3.1-5.65-3.78-6.55-.68-.9-1.4-1.52-2.15-1.86-.76-.33-1.96-.5-3.61-.5h-1.45v18.61h-7.17ZM553.99,681.94h5.3c3.44,0,5.58-.18,6.44-.55s1.52-.99,2.01-1.89c.48-.89.73-2.01.73-3.34,0-1.5-.32-2.71-.96-3.63-.64-.92-1.54-1.5-2.7-1.75-.58-.1-2.32-.15-5.23-.15h-5.59v11.31Z"/>
    <path class="cls-3" d="M581.15,685.65c0-4.54.54-8.35,1.62-11.43.81-2.27,1.91-4.31,3.3-6.11,1.4-1.8,2.92-3.14,4.59-4.01,2.21-1.18,4.76-1.76,7.65-1.76,5.23,0,9.41,2.04,12.55,6.11s4.71,9.74,4.71,17-1.56,12.83-4.67,16.89-7.28,6.1-12.49,6.1-9.47-2.02-12.59-6.07c-3.12-4.04-4.67-9.62-4.67-16.71ZM588.53,685.34c0,5.05.93,8.88,2.78,11.48,1.86,2.61,4.21,3.91,7.07,3.91s5.2-1.29,7.03-3.88c1.83-2.58,2.75-6.46,2.75-11.63s-.89-8.92-2.67-11.43-4.15-3.77-7.1-3.77-5.33,1.27-7.14,3.82c-1.81,2.54-2.71,6.38-2.71,11.51Z"/>
    <path class="cls-3" d="M629.15,707.66v-37.04h-10.53v-7.54h28.2v7.54h-10.5v37.04h-7.16Z"/>
    <path class="cls-3" d="M651.46,707.66v-44.58h7.17v17.55h14.04v-17.55h7.16v44.58h-7.16v-19.49h-14.04v19.49h-7.17Z"/>
    <path class="cls-3" d="M687.24,707.66v-44.58h26.31v7.54h-19.15v9.88h17.81v7.51h-17.81v12.13h19.82v7.51h-26.99Z"/>
    <path class="cls-3" d="M720.33,707.66v-44.58h15.08c3.79,0,6.55.4,8.27,1.2,1.72.8,3.09,2.23,4.13,4.27s1.55,4.39,1.55,7.02c0,3.35-.78,6.11-2.35,8.29-1.57,2.18-3.91,3.55-7.02,4.12,1.55,1.14,2.83,2.38,3.84,3.74,1.01,1.36,2.37,3.77,4.08,7.24l4.33,8.7h-8.57l-5.18-9.7c-1.84-3.47-3.1-5.65-3.78-6.55-.68-.9-1.4-1.52-2.15-1.86-.76-.33-1.96-.5-3.61-.5h-1.45v18.61h-7.17ZM727.49,681.94h5.3c3.44,0,5.58-.18,6.44-.55s1.52-.99,2.01-1.89c.48-.89.73-2.01.73-3.34,0-1.5-.32-2.71-.96-3.63-.64-.92-1.54-1.5-2.7-1.75-.58-.1-2.32-.15-5.23-.15h-5.59v11.31Z"/>
    <path class="cls-3" d="M755.88,663.2h6.8v6.11c0,2.47-.17,4.42-.51,5.85-.34,1.43-.98,2.71-1.92,3.85-.94,1.14-2.14,2.03-3.59,2.68l-1.33-3.53c1.37-.57,2.35-1.35,2.93-2.34.58-.99.89-2.35.92-4.08h-3.29v-8.54Z"/>
    <path class="cls-3" d="M768.06,693.16l6.97-.85c.42,2.94,1.27,5.1,2.55,6.48,1.28,1.38,3.01,2.07,5.19,2.07,2.31,0,4.05-.61,5.22-1.84,1.17-1.23,1.75-2.66,1.75-4.3,0-1.05-.25-1.95-.74-2.69-.49-.74-1.35-1.38-2.58-1.93-.84-.36-2.75-1.01-5.74-1.95-3.84-1.2-6.54-2.67-8.08-4.41-2.18-2.45-3.27-5.44-3.27-8.97,0-2.27.51-4.39,1.54-6.37,1.02-1.98,2.5-3.48,4.43-4.52,1.93-1.03,4.26-1.55,6.98-1.55,4.45,0,7.81,1.23,10.06,3.68s3.43,5.73,3.55,9.82l-7.16.4c-.31-2.29-.96-3.94-1.97-4.94-1.01-1-2.52-1.51-4.54-1.51s-3.71.54-4.89,1.61c-.76.69-1.14,1.61-1.14,2.77,0,1.05.36,1.96,1.07,2.71.9.95,3.1,1.95,6.58,2.98s6.06,2.1,7.73,3.21c1.67,1.11,2.98,2.62,3.92,4.53.94,1.92,1.42,4.28,1.42,7.1,0,2.55-.56,4.95-1.69,7.18-1.13,2.23-2.73,3.89-4.79,4.97-2.07,1.08-4.64,1.63-7.72,1.63-4.49,0-7.93-1.3-10.34-3.91-2.4-2.6-3.84-6.4-4.31-11.39Z"/>
    <path class="cls-3" d="M438.36,763.01h-7.79l-3.1-10.13h-14.18l-2.93,10.13h-7.6l13.82-44.58h7.58l14.21,44.58ZM425.17,745.37l-4.89-16.54-4.79,16.54h9.68Z"/>
    <path class="cls-3" d="M458.67,746.62v-7.51h15.44v17.76c-1.5,1.83-3.68,3.43-6.52,4.82-2.85,1.39-5.73,2.08-8.65,2.08-3.71,0-6.95-.98-9.71-2.94-2.76-1.96-4.83-4.75-6.22-8.39-1.39-3.64-2.08-7.6-2.08-11.88,0-4.64.77-8.77,2.32-12.38,1.55-3.61,3.82-6.38,6.8-8.3,2.28-1.48,5.11-2.22,8.5-2.22,4.41,0,7.85,1.16,10.32,3.48,2.48,2.32,4.07,5.53,4.78,9.62l-7.12,1.67c-.5-2.19-1.44-3.92-2.82-5.18-1.38-1.27-3.1-1.9-5.17-1.9-3.13,0-5.62,1.25-7.47,3.74-1.85,2.49-2.77,6.19-2.77,11.1,0,5.29.94,9.26,2.81,11.91s4.32,3.97,7.36,3.97c1.5,0,3-.37,4.51-1.11,1.51-.74,2.8-1.64,3.88-2.69v-5.66h-8.21Z"/>
    <path class="cls-3" d="M480.74,763.01v-44.58h15.08c3.79,0,6.55.4,8.27,1.2,1.72.8,3.09,2.23,4.13,4.27s1.55,4.39,1.55,7.02c0,3.35-.78,6.11-2.35,8.29-1.57,2.18-3.91,3.55-7.02,4.12,1.55,1.14,2.83,2.38,3.84,3.74,1.01,1.36,2.37,3.77,4.08,7.24l4.33,8.7h-8.57l-5.18-9.7c-1.84-3.47-3.1-5.65-3.78-6.55-.68-.9-1.4-1.52-2.15-1.86-.76-.33-1.96-.5-3.61-.5h-1.45v18.61h-7.17ZM487.91,737.28h5.3c3.44,0,5.58-.18,6.44-.55s1.52-.99,2.01-1.89c.48-.89.73-2.01.73-3.34,0-1.5-.32-2.71-.96-3.63-.64-.92-1.54-1.5-2.7-1.75-.58-.1-2.32-.15-5.23-.15h-5.59v11.31Z"/>
    <path class="cls-3" d="M515.07,740.99c0-4.54.54-8.35,1.62-11.43.81-2.27,1.91-4.31,3.3-6.11,1.4-1.8,2.92-3.14,4.59-4.01,2.21-1.18,4.76-1.76,7.65-1.76,5.23,0,9.41,2.04,12.55,6.11s4.71,9.74,4.71,17-1.56,12.83-4.67,16.89-7.28,6.1-12.49,6.1-9.47-2.02-12.59-6.07c-3.12-4.04-4.67-9.62-4.67-16.71ZM522.45,740.69c0,5.05.93,8.88,2.78,11.48,1.86,2.61,4.21,3.91,7.07,3.91s5.2-1.29,7.03-3.88c1.83-2.58,2.75-6.46,2.75-11.63s-.89-8.92-2.67-11.43-4.15-3.77-7.1-3.77-5.33,1.27-7.14,3.82c-1.81,2.54-2.71,6.38-2.71,11.51Z"/>
  </g>
</svg>